<?xml version="1.0" encoding="UTF-8" standalone="no"?><svg xmlns="http://www.w3.org/2000/svg" xmlns:xlink="http://www.w3.org/1999/xlink" contentScriptType="application/ecmascript" contentStyleType="text/css" height="882px" preserveAspectRatio="none" style="width:1414px;height:882px;" version="1.1" viewBox="0 0 1414 882" width="1414px" zoomAndPan="magnify"><defs><filter height="300%" id="f2ix1uz67mbl5" width="300%" x="-1" y="-1"><feGaussianBlur result="blurOut" stdDeviation="2.0"/><feColorMatrix in="blurOut" result="blurOut2" type="matrix" values="0 0 0 0 0 0 0 0 0 0 0 0 0 0 0 0 0 0 .4 0"/><feOffset dx="4.0" dy="4.0" in="blurOut2" result="blurOut3"/><feBlend in="SourceGraphic" in2="blurOut3" mode="normal"/></filter></defs><g><!--MD5=[5825d71e555782b36aa2a89542f470c3]
cluster player_sees--><rect fill="#FEFECE" filter="url(#f2ix1uz67mbl5)" height="442.72" rx="12.5" ry="12.5" style="stroke:#A80036;stroke-width:1.5;" width="396" x="39.2384" y="173.5"/><rect fill="#FFFFFF" height="377.4856" rx="12.5" ry="12.5" style="stroke:#FFFFFF;stroke-width:1.0;" width="390" x="42.2384" y="235.7344"/><line style="stroke:#A80036;stroke-width:1.5;" x1="39.2384" x2="435.2384" y1="232.7344" y2="232.7344"/><line style="stroke:#A80036;stroke-width:1.5;" x1="39.2384" x2="435.2384" y1="199.7969" y2="199.7969"/><text fill="#000000" font-family="sans-serif" font-size="14" lengthAdjust="spacing" textLength="84" x="129.7384" y="190.4951">player_sees</text><text fill="#000000" font-family="sans-serif" font-size="12" lengthAdjust="spacing" textLength="215" x="44.2384" y="213.4355">"You see a ship. It doesn't see you"</text><text fill="#000000" font-family="sans-serif" font-size="12" lengthAdjust="spacing" textLength="144" x="44.2384" y="227.4043">[Attack] [Trade] [Avoid]</text><!--MD5=[5438b40d8e6dbfa5cf32bdf74e1f46e8]
cluster ai_sees--><rect fill="#FEFECE" filter="url(#f2ix1uz67mbl5)" height="357.86" rx="12.5" ry="12.5" style="stroke:#A80036;stroke-width:1.5;" width="530" x="588.2384" y="81"/><rect fill="#FFFFFF" height="306.5944" rx="12.5" ry="12.5" style="stroke:#FFFFFF;stroke-width:1.0;" width="524" x="591.2384" y="129.2656"/><line style="stroke:#A80036;stroke-width:1.5;" x1="588.2384" x2="1118.2384" y1="126.2656" y2="126.2656"/><line style="stroke:#A80036;stroke-width:1.5;" x1="588.2384" x2="1118.2384" y1="107.2969" y2="107.2969"/><text fill="#000000" font-family="sans-serif" font-size="14" lengthAdjust="spacing" textLength="51" x="811.7384" y="97.9951">ai_sees</text><text fill="#000000" font-family="sans-serif" font-size="12" lengthAdjust="spacing" textLength="83" x="593.2384" y="120.9355">&lt;ai decides&gt;</text><!--MD5=[c240c8622b7725fb34ae9321c759f78b]
cluster Fight--><rect fill="#FEFECE" filter="url(#f2ix1uz67mbl5)" height="391" rx="12.5" ry="12.5" style="stroke:#A80036;stroke-width:1.5;" width="406" x="467.2384" y="479.22"/><rect fill="#FFFFFF" height="358.7031" rx="12.5" ry="12.5" style="stroke:#FFFFFF;stroke-width:1.0;" width="400" x="470.2384" y="508.5169"/><line style="stroke:#A80036;stroke-width:1.5;" x1="467.2384" x2="873.2384" y1="505.5169" y2="505.5169"/><text fill="#000000" font-family="sans-serif" font-size="14" lengthAdjust="spacing" textLength="37" x="651.7384" y="496.2151">Fight</text><!--MD5=[2601eade86ae9acab8d6f75b870c2336]
cluster trade--><rect fill="#FEFECE" filter="url(#f2ix1uz67mbl5)" height="377.36" rx="12.5" ry="12.5" style="stroke:#A80036;stroke-width:1.5;" width="183" x="1155.2384" y="478.86"/><rect fill="#FFFFFF" height="298.1569" rx="12.5" ry="12.5" style="stroke:#FFFFFF;stroke-width:1.0;" width="177" x="1158.2384" y="555.0631"/><line style="stroke:#A80036;stroke-width:1.5;" x1="1155.2384" x2="1338.2384" y1="552.0631" y2="552.0631"/><line style="stroke:#A80036;stroke-width:1.5;" x1="1155.2384" x2="1338.2384" y1="505.1569" y2="505.1569"/><text fill="#000000" font-family="sans-serif" font-size="14" lengthAdjust="spacing" textLength="39" x="1186.7384" y="495.8551">trade</text><text fill="#000000" font-family="sans-serif" font-size="12" lengthAdjust="spacing" textLength="120" x="1160.2384" y="518.7955">"They want to buy X</text><text fill="#000000" font-family="sans-serif" font-size="12" lengthAdjust="spacing" textLength="89" x="1160.2384" y="532.7643">and sell you Y"</text><text fill="#000000" font-family="sans-serif" font-size="12" lengthAdjust="spacing" textLength="97" x="1160.2384" y="546.733">[Deal] [No deal]</text><rect fill="#FEFECE" filter="url(#f2ix1uz67mbl5)" height="40" rx="12.5" ry="12.5" style="stroke:#A80036;stroke-width:1.5;" width="50" x="361.2384" y="362.86"/><text fill="#000000" font-family="sans-serif" font-size="14" lengthAdjust="spacing" textLength="40" x="366.2384" y="387.7067">Avoid</text><g id="player_sees.pt"><rect fill="#FEFECE" filter="url(#f2ix1uz67mbl5)" height="64.2344" rx="12.5" ry="12.5" style="stroke:#A80036;stroke-width:1.5;" width="122" x="204.2384" y="350.86"/><line style="stroke:#A80036;stroke-width:1.5;" x1="204.2384" x2="326.2384" y1="377.1569" y2="377.1569"/><text fill="#000000" font-family="sans-serif" font-size="14" lengthAdjust="spacing" textLength="41" x="244.7384" y="368.8551">Trade</text><text fill="#000000" font-family="sans-serif" font-size="12" lengthAdjust="spacing" textLength="102" x="209.2384" y="393.2955">+1 rating up to 0</text><text fill="#000000" font-family="sans-serif" font-size="12" lengthAdjust="spacing" textLength="83" x="209.2384" y="407.2643">&lt;ai decides&gt;</text></g><g id="player_sees.pa"><rect fill="#FEFECE" filter="url(#f2ix1uz67mbl5)" height="64.2344" rx="12.5" ry="12.5" style="stroke:#A80036;stroke-width:1.5;" width="103" x="65.7384" y="350.86"/><line style="stroke:#A80036;stroke-width:1.5;" x1="65.7384" x2="168.7384" y1="377.1569" y2="377.1569"/><text fill="#000000" font-family="sans-serif" font-size="14" lengthAdjust="spacing" textLength="49" x="92.7384" y="368.8551">Attack</text><text fill="#000000" font-family="sans-serif" font-size="12" lengthAdjust="spacing" textLength="50" x="70.7384" y="393.2955">-1 rating</text><text fill="#000000" font-family="sans-serif" font-size="12" lengthAdjust="spacing" textLength="83" x="70.7384" y="407.2643">&lt;ai decides&gt;</text></g><g id="player_sees.ptaa"><rect fill="#FEFECE" filter="url(#f2ix1uz67mbl5)" height="78.2031" rx="12.5" ry="12.5" style="stroke:#A80036;stroke-width:1.5;" width="142" x="63.2384" y="514.22"/><line style="stroke:#A80036;stroke-width:1.5;" x1="63.2384" x2="205.2384" y1="540.5169" y2="540.5169"/><text fill="#000000" font-family="sans-serif" font-size="14" lengthAdjust="spacing" textLength="49" x="109.7384" y="532.2151">Treach</text><text fill="#000000" font-family="sans-serif" font-size="12" lengthAdjust="spacing" textLength="103" x="68.2384" y="556.6555">+2 rating up to 0</text><text fill="#000000" font-family="sans-serif" font-size="12" lengthAdjust="spacing" textLength="106" x="68.2384" y="570.6243">"They chose war"</text><text fill="#000000" font-family="sans-serif" font-size="12" lengthAdjust="spacing" textLength="122" x="68.2384" y="584.593">[Attack] [Surrender]</text></g><g id="player_sees.ptai"><rect fill="#FEFECE" filter="url(#f2ix1uz67mbl5)" height="64.2344" rx="12.5" ry="12.5" style="stroke:#A80036;stroke-width:1.5;" width="116" x="240.2384" y="521.22"/><line style="stroke:#A80036;stroke-width:1.5;" x1="240.2384" x2="356.2384" y1="547.5169" y2="547.5169"/><text fill="#000000" font-family="sans-serif" font-size="14" lengthAdjust="spacing" textLength="46" x="275.2384" y="539.2151">Ignore</text><text fill="#000000" font-family="sans-serif" font-size="12" lengthAdjust="spacing" textLength="96" x="245.2384" y="563.6555">"Not interested"</text><text fill="#000000" font-family="sans-serif" font-size="12" lengthAdjust="spacing" textLength="25" x="245.2384" y="577.6243">[ok]</text></g><ellipse cx="401.2384" cy="553.22" filter="url(#f2ix1uz67mbl5)" rx="10" ry="10" style="stroke:#000000;stroke-width:1.0;fill:none;"/><ellipse cx="401.7384" cy="553.72" fill="#000000" rx="6" ry="6" style="stroke:none;stroke-width:1.0;"/><g id="ai_sees.aa"><rect fill="#FEFECE" filter="url(#f2ix1uz67mbl5)" height="92.1719" rx="12.5" ry="12.5" style="stroke:#A80036;stroke-width:1.5;" width="152" x="612.2384" y="187.86"/><line style="stroke:#A80036;stroke-width:1.5;" x1="612.2384" x2="764.2384" y1="214.1569" y2="214.1569"/><text fill="#000000" font-family="sans-serif" font-size="14" lengthAdjust="spacing" textLength="49" x="663.7384" y="205.8551">Attack</text><text fill="#000000" font-family="sans-serif" font-size="12" lengthAdjust="spacing" textLength="102" x="617.2384" y="230.2955">+1 rating up to 0</text><text fill="#000000" font-family="sans-serif" font-size="12" lengthAdjust="spacing" textLength="132" x="617.2384" y="244.2643">"The ship approaches</text><text fill="#000000" font-family="sans-serif" font-size="12" lengthAdjust="spacing" textLength="109" x="617.2384" y="258.233">you aggressively"</text><text fill="#000000" font-family="sans-serif" font-size="12" lengthAdjust="spacing" textLength="122" x="617.2384" y="272.2018">[Attack] [Surrender]</text></g><g id="ai_sees.at"><rect fill="#FEFECE" filter="url(#f2ix1uz67mbl5)" height="64.2344" rx="12.5" ry="12.5" style="stroke:#A80036;stroke-width:1.5;" width="172" x="799.2384" y="201.86"/><line style="stroke:#A80036;stroke-width:1.5;" x1="799.2384" x2="971.2384" y1="228.1569" y2="228.1569"/><text fill="#000000" font-family="sans-serif" font-size="14" lengthAdjust="spacing" textLength="41" x="864.7384" y="219.8551">Trade</text><text fill="#000000" font-family="sans-serif" font-size="12" lengthAdjust="spacing" textLength="152" x="804.2384" y="244.2955">"The ship wants to trade"</text><text fill="#000000" font-family="sans-serif" font-size="12" lengthAdjust="spacing" textLength="149" x="804.2384" y="258.2643">[Attack] [Trade] [Ignore]</text></g><g id="ai_sees.ai"><rect fill="#FEFECE" filter="url(#f2ix1uz67mbl5)" height="78.2031" rx="12.5" ry="12.5" style="stroke:#A80036;stroke-width:1.5;" width="88" x="1006.2384" y="194.86"/><line style="stroke:#A80036;stroke-width:1.5;" x1="1006.2384" x2="1094.2384" y1="221.1569" y2="221.1569"/><text fill="#000000" font-family="sans-serif" font-size="14" lengthAdjust="spacing" textLength="40" x="1030.2384" y="212.8551">Avoid</text><text fill="#000000" font-family="sans-serif" font-size="12" lengthAdjust="spacing" textLength="64" x="1011.2384" y="237.2955">"You didn't</text><text fill="#000000" font-family="sans-serif" font-size="12" lengthAdjust="spacing" textLength="68" x="1011.2384" y="251.2643">see a ship"</text><text fill="#000000" font-family="sans-serif" font-size="12" lengthAdjust="spacing" textLength="25" x="1011.2384" y="265.233">[ok]</text></g><g id="ai_sees.atpa"><rect fill="#FEFECE" filter="url(#f2ix1uz67mbl5)" height="64.2344" rx="12.5" ry="12.5" style="stroke:#A80036;stroke-width:1.5;" width="103" x="731.7384" y="350.86"/><line style="stroke:#A80036;stroke-width:1.5;" x1="731.7384" x2="834.7384" y1="377.1569" y2="377.1569"/><text fill="#000000" font-family="sans-serif" font-size="14" lengthAdjust="spacing" textLength="49" x="758.7384" y="368.8551">Treach</text><text fill="#000000" font-family="sans-serif" font-size="12" lengthAdjust="spacing" textLength="51" x="736.7384" y="393.2955">-2 rating</text><text fill="#000000" font-family="sans-serif" font-size="12" lengthAdjust="spacing" textLength="83" x="736.7384" y="407.2643">&lt;ai decides&gt;</text></g><g id="ai_sees.atpi"><rect fill="#FEFECE" filter="url(#f2ix1uz67mbl5)" height="64.2344" rx="12.5" ry="12.5" style="stroke:#A80036;stroke-width:1.5;" width="135" x="869.7384" y="350.86"/><line style="stroke:#A80036;stroke-width:1.5;" x1="869.7384" x2="1004.7384" y1="377.1569" y2="377.1569"/><text fill="#000000" font-family="sans-serif" font-size="14" lengthAdjust="spacing" textLength="46" x="914.2384" y="368.8551">Ignore</text><text fill="#000000" font-family="sans-serif" font-size="12" lengthAdjust="spacing" textLength="115" x="874.7384" y="393.2955">-1 rating down to 0</text><text fill="#000000" font-family="sans-serif" font-size="12" lengthAdjust="spacing" textLength="42" x="874.7384" y="407.2643">or skip</text></g><ellipse cx="1050.2384" cy="382.86" filter="url(#f2ix1uz67mbl5)" rx="10" ry="10" style="stroke:#000000;stroke-width:1.0;fill:none;"/><ellipse cx="1050.7384" cy="383.36" fill="#000000" rx="6" ry="6" style="stroke:none;stroke-width:1.0;"/><g id="Fight.ai_fight_ok"><rect fill="#FEFECE" filter="url(#f2ix1uz67mbl5)" height="78.2031" rx="12.5" ry="12.5" style="stroke:#A80036;stroke-width:1.5;" width="142" x="483.2384" y="514.22"/><line style="stroke:#A80036;stroke-width:1.5;" x1="483.2384" x2="625.2384" y1="540.5169" y2="540.5169"/><text fill="#000000" font-family="sans-serif" font-size="14" lengthAdjust="spacing" textLength="79" x="514.7384" y="532.2151">ai_fight_ok</text><text fill="#000000" font-family="sans-serif" font-size="12" lengthAdjust="spacing" textLength="70" x="488.2384" y="556.6555">"The ship is</text><text fill="#000000" font-family="sans-serif" font-size="12" lengthAdjust="spacing" textLength="95" x="488.2384" y="570.6243">going to attack"</text><text fill="#000000" font-family="sans-serif" font-size="12" lengthAdjust="spacing" textLength="122" x="488.2384" y="584.593">[Attack] [Surrender]</text></g><g id="Fight.ai_attacks"><rect fill="#FEFECE" filter="url(#f2ix1uz67mbl5)" height="78.2031" rx="12.5" ry="12.5" style="stroke:#A80036;stroke-width:1.5;" width="160" x="689.2384" y="652.22"/><line style="stroke:#A80036;stroke-width:1.5;" x1="689.2384" x2="849.2384" y1="678.5169" y2="678.5169"/><text fill="#000000" font-family="sans-serif" font-size="14" lengthAdjust="spacing" textLength="73" x="732.7384" y="670.2151">ai_attacks</text><text fill="#000000" font-family="sans-serif" font-size="12" lengthAdjust="spacing" textLength="140" x="694.2384" y="694.6555">&lt;damage player ship&gt;</text><text fill="#000000" font-family="sans-serif" font-size="12" lengthAdjust="spacing" textLength="110" x="694.2384" y="708.6243">"They attack you!"</text><text fill="#000000" font-family="sans-serif" font-size="12" lengthAdjust="spacing" textLength="122" x="694.2384" y="722.593">[Attack] [Surrender]</text></g><g id="Fight.player_attacks"><rect fill="#FEFECE" filter="url(#f2ix1uz67mbl5)" height="64.2344" rx="12.5" ry="12.5" style="stroke:#A80036;stroke-width:1.5;" width="132" x="485.2384" y="659.22"/><line style="stroke:#A80036;stroke-width:1.5;" x1="485.2384" x2="617.2384" y1="685.5169" y2="685.5169"/><text fill="#000000" font-family="sans-serif" font-size="14" lengthAdjust="spacing" textLength="106" x="498.2384" y="677.2151">player_attacks</text><text fill="#000000" font-family="sans-serif" font-size="12" lengthAdjust="spacing" textLength="112" x="490.2384" y="701.6555">&lt;damage ai ship&gt;</text><text fill="#000000" font-family="sans-serif" font-size="12" lengthAdjust="spacing" textLength="83" x="490.2384" y="715.6243">&lt;ai decides&gt;</text></g><g id="Fight.player_surrenders"><rect fill="#FEFECE" filter="url(#f2ix1uz67mbl5)" height="64.2344" rx="12.5" ry="12.5" style="stroke:#A80036;stroke-width:1.5;" width="148" x="709.2384" y="790.22"/><line style="stroke:#A80036;stroke-width:1.5;" x1="709.2384" x2="857.2384" y1="816.5169" y2="816.5169"/><text fill="#000000" font-family="sans-serif" font-size="14" lengthAdjust="spacing" textLength="128" x="719.2384" y="808.2151">player_surrenders</text><text fill="#000000" font-family="sans-serif" font-size="12" lengthAdjust="spacing" textLength="102" x="714.2384" y="832.6555">+1 rating up to 0</text><text fill="#000000" font-family="sans-serif" font-size="12" lengthAdjust="spacing" textLength="106" x="714.2384" y="846.6243">&lt;ai takes cargo&gt;</text></g><g id="Fight.ai_surrenders"><rect fill="#FEFECE" filter="url(#f2ix1uz67mbl5)" height="64.2344" rx="12.5" ry="12.5" style="stroke:#A80036;stroke-width:1.5;" width="135" x="483.7384" y="790.22"/><line style="stroke:#A80036;stroke-width:1.5;" x1="483.7384" x2="618.7384" y1="816.5169" y2="816.5169"/><text fill="#000000" font-family="sans-serif" font-size="14" lengthAdjust="spacing" textLength="95" x="503.7384" y="808.2151">ai_surrenders</text><text fill="#000000" font-family="sans-serif" font-size="12" lengthAdjust="spacing" textLength="115" x="488.7384" y="832.6555">-1 rating down to 0</text><text fill="#000000" font-family="sans-serif" font-size="12" lengthAdjust="spacing" textLength="78" x="488.7384" y="846.6243">"Take cargo"</text></g><ellipse cx="664.2384" cy="822.22" filter="url(#f2ix1uz67mbl5)" rx="10" ry="10" style="stroke:#000000;stroke-width:1.0;fill:none;"/><ellipse cx="664.7384" cy="822.72" fill="#000000" rx="6" ry="6" style="stroke:none;stroke-width:1.0;"/><g id="trade.trade_ok"><rect fill="#FEFECE" filter="url(#f2ix1uz67mbl5)" height="64.2344" rx="12.5" ry="12.5" style="stroke:#A80036;stroke-width:1.5;" width="113" x="1179.7384" y="659.22"/><line style="stroke:#A80036;stroke-width:1.5;" x1="1179.7384" x2="1292.7384" y1="685.5169" y2="685.5169"/><text fill="#000000" font-family="sans-serif" font-size="14" lengthAdjust="spacing" textLength="64" x="1204.2384" y="677.2151">trade_ok</text><text fill="#000000" font-family="sans-serif" font-size="12" lengthAdjust="spacing" textLength="55" x="1184.7384" y="701.6555">+1 rating</text><text fill="#000000" font-family="sans-serif" font-size="12" lengthAdjust="spacing" textLength="93" x="1184.7384" y="715.6243">&lt;move cargo&gt;</text></g><ellipse cx="1259.2384" cy="822.22" filter="url(#f2ix1uz67mbl5)" rx="10" ry="10" style="stroke:#000000;stroke-width:1.0;fill:none;"/><ellipse cx="1259.7384" cy="822.72" fill="#000000" rx="6" ry="6" style="stroke:none;stroke-width:1.0;"/><ellipse cx="408.2384" cy="32" fill="#000000" filter="url(#f2ix1uz67mbl5)" rx="10" ry="10" style="stroke:none;stroke-width:1.0;"/><g id="new_ship"><rect fill="#FEFECE" filter="url(#f2ix1uz67mbl5)" height="50.2656" rx="12.5" ry="12.5" style="stroke:#A80036;stroke-width:1.5;" width="146" x="453.2384" y="7"/><line style="stroke:#A80036;stroke-width:1.5;" x1="453.2384" x2="599.2384" y1="33.2969" y2="33.2969"/><text fill="#000000" font-family="sans-serif" font-size="14" lengthAdjust="spacing" textLength="66" x="493.2384" y="24.9951">new_ship</text><text fill="#000000" font-family="sans-serif" font-size="12" lengthAdjust="spacing" textLength="126" x="458.2384" y="49.4355">&lt;compare visibility&gt;</text></g><path d="M1237.2384,339.86 L1237.2384,425.5241 L1405.2384,425.5241 L1405.2384,349.86 L1395.2384,339.86 L1237.2384,339.86 " fill="#FBFB77" filter="url(#f2ix1uz67mbl5)" style="stroke:#A80036;stroke-width:1.0;"/><path d="M1395.2384,339.86 L1395.2384,349.86 L1405.2384,349.86 L1395.2384,339.86 " fill="#FBFB77" style="stroke:#A80036;stroke-width:1.0;"/><text fill="#000000" font-family="sans-serif" font-size="13" lengthAdjust="spacing" textLength="134" x="1243.2384" y="356.9269">"Skip" happens when</text><text fill="#000000" font-family="sans-serif" font-size="13" lengthAdjust="spacing" textLength="126" x="1243.2384" y="372.0597">you click the button</text><text fill="#000000" font-family="sans-serif" font-size="13" lengthAdjust="spacing" textLength="115" x="1243.2384" y="387.1925">rather fast (within</text><text fill="#000000" font-family="sans-serif" font-size="13" lengthAdjust="spacing" textLength="137" x="1243.2384" y="402.3253">800ms). Rating is not</text><text fill="#000000" font-family="sans-serif" font-size="13" lengthAdjust="spacing" textLength="147" x="1243.2384" y="417.4581">decreased in this case.</text><!--MD5=[852e25480325dd751dfa6886087d8047]
link *start to new_ship--><path d="M418.3794,32 C428.1854,32 437.9924,32 447.7994,32 " fill="none" id="*start-to-new_ship" style="stroke:#A80036;stroke-width:1.0;"/><polygon fill="#A80036" points="452.9274,32,443.9274,28,447.9274,32,443.9274,36,452.9274,32" style="stroke:#A80036;stroke-width:1.0;"/><!--MD5=[9bb41369c8ad020e513b4ff6742ab07c]
link new_ship to player_sees--><path d="M501.9934,57.108 C475.6809,83.271 432.4511,126.2555 395.3312,163.1649 C393.0112,165.4717 390.7151,167.7548 388.4485,170.0086 C387.3152,171.1355 386.1892,172.2551 385.0713,173.3666 " fill="none" id="new_ship-to-player_sees" style="stroke:#A80036;stroke-width:1.0;"/><polygon fill="#A80036" points="385.0713,173.3666,394.2737,169.8572,388.6169,169.8411,388.633,164.1843,385.0713,173.3666" style="stroke:#A80036;stroke-width:1.0;"/><!--MD5=[2e695a6363b71245f5bf7a6deb220a54]
link new_ship to ai_sees--><path d="M593.1944,57.043 C612.1526,63.8503 633.471,71.5051 654.8397,79.178 C656.1753,79.6576 657.511,80.1372 658.8464,80.6167 C659.1802,80.7366 659.514,80.8564 659.8478,80.9763 " fill="none" id="new_ship-to-ai_sees" style="stroke:#A80036;stroke-width:1.0;"/><polygon fill="#A80036" points="659.8478,80.9763,652.7291,74.1701,655.142,79.2866,650.0256,81.6994,659.8478,80.9763" style="stroke:#A80036;stroke-width:1.0;"/><!--MD5=[fdf4af1e0c8dee42a8b8094698224c52]
link player_sees to pa--><path d="M325.0874,234.967 C320.7864,238.006 225.4484,305.385 165.4034,347.82 " fill="none" id="player_sees-to-pa" style="stroke:#A80036;stroke-width:1.0;"/><polygon fill="#A80036" points="161.1434,350.831,170.8016,348.9029,165.2265,347.9451,166.1842,342.3699,161.1434,350.831" style="stroke:#A80036;stroke-width:1.0;"/><!--MD5=[b96d0782104e1a51017a67fe4c930832]
link player_sees to pt--><path d="M325.1954,234.967 C323.9714,237.963 297.2174,303.511 279.8654,346.023 " fill="none" id="player_sees-to-pt" style="stroke:#A80036;stroke-width:1.0;"/><polygon fill="#A80036" points="277.9034,350.831,285.0081,344.0102,279.793,346.2018,277.6014,340.9868,277.9034,350.831" style="stroke:#A80036;stroke-width:1.0;"/><!--MD5=[9113c51b5343537dfc4f741f7a1533e4]
link player_sees to pi--><path d="M325.2824,234.967 C326.6484,238.258 359.3264,317.006 376.2604,357.814 " fill="none" id="player_sees-to-pi" style="stroke:#A80036;stroke-width:1.0;"/><polygon fill="#A80036" points="378.2444,362.595,378.4883,352.7492,376.3275,357.977,371.0996,355.8162,378.2444,362.595" style="stroke:#A80036;stroke-width:1.0;"/><!--MD5=[4790e7b843cefee92b91e6cc9d3b70e3]
link ai_sees to aa--><path d="M786.1674,127.936 C784.6424,129.57 758.8334,157.223 734.0954,183.727 " fill="none" id="ai_sees-to-aa" style="stroke:#A80036;stroke-width:1.0;"/><polygon fill="#A80036" points="730.4574,187.626,739.5229,183.7768,733.8694,183.9711,733.675,178.3176,730.4574,187.626" style="stroke:#A80036;stroke-width:1.0;"/><!--MD5=[9759a178ca8b1dcca2d69fbb06aa2de2]
link ai_sees to at--><path d="M786.3104,127.936 C788.1254,129.862 824.0264,167.939 852.0614,197.673 " fill="none" id="ai_sees-to-at" style="stroke:#A80036;stroke-width:1.0;"/><polygon fill="#A80036" points="855.7864,201.623,852.5217,192.331,852.3559,197.9854,846.7015,197.8197,855.7864,201.623" style="stroke:#A80036;stroke-width:1.0;"/><!--MD5=[7115b7968aa8ec5525d3cd9bd1384e23]
link ai_sees to ai--><path d="M786.3574,127.865 C791.3144,128.085 950.2414,135.293 989.2384,157.5 C1003.1684,165.432 1015.1764,177.892 1024.7684,190.413 " fill="none" id="ai_sees-to-ai" style="stroke:#A80036;stroke-width:1.0;"/><polygon fill="#A80036" points="1027.9184,194.655,1025.7568,185.0463,1024.9344,190.643,1019.3376,189.8207,1027.9184,194.655" style="stroke:#A80036;stroke-width:1.0;"/><!--MD5=[5786edada7171abe1d4dbfbc409645c3]
link trade to trade_ok--><path d="M1210.2584,554.319 C1210.7784,557.02 1221.7984,614.676 1229.3184,654.014 " fill="none" id="trade-to-trade_ok" style="stroke:#A80036;stroke-width:1.0;"/><polygon fill="#A80036" points="1230.3084,659.195,1232.549,649.6044,1229.3704,654.2838,1224.691,651.1052,1230.3084,659.195" style="stroke:#A80036;stroke-width:1.0;"/><!--MD5=[b33b382b26d9360326e7122395cea95f]
link trade to trade_x--><path d="M1210.2884,554.245 C1212.5884,555.31 1286.2584,589.785 1310.2384,643.22 C1326.0684,678.498 1320.0084,692.808 1310.2384,730.22 C1302.1284,761.293 1280.7784,792.9817 1268.4284,809.5236 " fill="none" id="trade-to-trade_x" style="stroke:#A80036;stroke-width:1.0;"/><polygon fill="#A80036" points="1265.1984,813.7745,1273.8243,809.0213,1268.2201,809.7909,1267.4505,804.1866,1265.1984,813.7745" style="stroke:#A80036;stroke-width:1.0;"/><!--MD5=[7aa513b18c24ac74b3753f46d06c6c81]
link trade_ok to trade_x--><path d="M1241.8084,723.447 C1246.5484,750.029 1253.1384,786.9931 1256.6984,806.9957 " fill="none" id="trade_ok-to-trade_x" style="stroke:#A80036;stroke-width:1.0;"/><polygon fill="#A80036" points="1257.6284,812.165,1259.9836,802.6019,1256.7492,807.2429,1252.1083,804.0085,1257.6284,812.165" style="stroke:#A80036;stroke-width:1.0;"/><!--MD5=[057137f802dff6fd4daa4a2b0858efec]
link pa to ai_surrenders--><path d="M78.9852,414.928 C65.653,428.136 52.276,444.691 45.2384,462.86 C18.0517,533.05 6,567.985 45.2384,632.22 C136.0354,780.859 361.4424,813.3019 478.3324,819.9139 " fill="none" id="pa-to-ai_surrenders" style="stroke:#A80036;stroke-width:1.0;"/><polygon fill="#A80036" points="483.4734,820.192,474.7025,815.7118,478.4807,819.922,474.2705,823.7002,483.4734,820.192" style="stroke:#A80036;stroke-width:1.0;"/><!--MD5=[44b4c81c203954648774e26f5d50c1f9]
link pa to ai_fight_ok--><path d="M138.3994,414.882 C150.4914,429.855 167.0604,446.378 186.2384,454.86 C210.7414,465.698 401.8324,454.351 427.2384,462.86 C457.3254,472.936 486.5904,492.634 509.4304,510.978 " fill="none" id="pa-to-ai_fight_ok" style="stroke:#A80036;stroke-width:1.0;"/><polygon fill="#A80036" points="513.3284,514.145,508.8662,505.365,509.448,510.9918,503.8211,511.5736,513.3284,514.145" style="stroke:#A80036;stroke-width:1.0;"/><!--MD5=[51c472fd8182e530de647331e6cef96a]
link pt to ptaa--><path d="M240.9054,415.133 C220.1714,441.78 190.1814,480.322 167.2784,509.757 " fill="none" id="pt-to-ptaa" style="stroke:#A80036;stroke-width:1.0;"/><polygon fill="#A80036" points="163.9524,514.031,172.6371,509.3861,167.0236,510.0855,166.3242,504.472,163.9524,514.031" style="stroke:#A80036;stroke-width:1.0;"/><!--MD5=[b3248c9ba7faa89f098fa0071a8ace58]
link pt to trade--><path d="M289.9034,415.098 C303.7764,430.13 322.4654,446.641 343.2384,454.86 C370.6204,465.694 844.0674,458.834 873.2384,462.86 C948.7884,473.287 1031.6059,495.0973 1096.2359,514.5595 C1112.3934,519.4251 1127.4141,524.1439 1140.9005,528.5014 C1144.2721,529.5908 1147.5477,530.6576 1150.7213,531.6984 C1151.5147,531.9586 1152.3017,532.2172 1153.0822,532.4742 C1153.4725,532.6026 1153.8611,532.7307 1154.2481,532.8583 " fill="none" id="pt-to-trade" style="stroke:#A80036;stroke-width:1.0;"/><polygon fill="#A80036" points="1154.2481,532.8583,1146.9535,526.241,1149.4996,531.2925,1144.4482,533.8386,1154.2481,532.8583" style="stroke:#A80036;stroke-width:1.0;"/><!--MD5=[fa8c0a4d60d7d19ce51d3bd4f547c86c]
link pt to ptai--><path d="M271.3684,415.133 C276.9714,443.719 285.2574,485.994 291.1444,516.03 " fill="none" id="pt-to-ptai" style="stroke:#A80036;stroke-width:1.0;"/><polygon fill="#A80036" points="292.1414,521.115,294.3363,511.5138,291.18,516.2083,286.4856,513.052,292.1414,521.115" style="stroke:#A80036;stroke-width:1.0;"/><!--MD5=[d6a04f51f21eead8f79b06abc6a97f08]
link pi to px--><path d="M387.9594,403.173 C391.0014,437.324 397.2644,507.615 399.9594,537.862 " fill="none" id="pi-to-px" style="stroke:#A80036;stroke-width:1.0;"/><polygon fill="#A80036" points="400.4194,543.026,403.6064,533.7071,399.9765,538.0457,395.6379,534.4157,400.4194,543.026" style="stroke:#A80036;stroke-width:1.0;"/><!--MD5=[7c2881c1ba0df63bc29ce1a088424d01]
link aa to player_attacks--><path d="M695.0134,280.05 C704.3264,358.327 712.8134,521.377 643.2384,632.22 C637.6314,641.153 630.0904,648.949 621.7274,655.679 " fill="none" id="aa-to-player_attacks" style="stroke:#A80036;stroke-width:1.0;"/><polygon fill="#A80036" points="617.5614,658.898,627.1295,656.5633,621.5188,655.8421,622.24,650.2314,617.5614,658.898" style="stroke:#A80036;stroke-width:1.0;"/><!--MD5=[3e7f55a724f2360dd53c6164a211ff4f]
link aa to player_surrenders--><path d="M764.2484,273.284 C770.2614,275.695 776.3034,277.926 782.2384,279.86 C909.4574,321.328 992.7004,231.964 1078.2384,334.86 C1189.3984,468.575 951.3554,682.55 907.2384,730.22 C887.2614,751.806 861.5204,771.663 838.6724,787.2825 " fill="none" id="aa-to-player_surrenders" style="stroke:#A80036;stroke-width:1.0;"/><polygon fill="#A80036" points="834.4424,790.1492,844.1364,788.4098,838.5809,787.3435,839.6472,781.788,834.4424,790.1492" style="stroke:#A80036;stroke-width:1.0;"/><!--MD5=[3e778c721f1641744a217f2d28d7291a]
link at to atpa--><path d="M863.6064,266.035 C847.2434,289.617 824.7624,322.017 807.7364,346.554 " fill="none" id="at-to-atpa" style="stroke:#A80036;stroke-width:1.0;"/><polygon fill="#A80036" points="804.8384,350.73,813.2559,345.6168,807.6892,346.6223,806.6837,341.0556,804.8384,350.73" style="stroke:#A80036;stroke-width:1.0;"/><!--MD5=[c9a47de442e5c35e117fb780d4eb82a3]
link at to trade--><path d="M955.4994,265.905 C966.7394,270.685 978.2764,275.483 989.2384,279.86 C1055.1784,306.192 1089.9384,283.762 1139.2384,334.86 C1173.9684,370.8555 1191.7109,424.073 1200.7746,468.8398 C1201.3411,471.6377 1201.8737,474.4026 1202.3744,477.1282 C1202.437,477.4689 1202.4991,477.809 1202.5607,478.1485 " fill="none" id="at-to-trade" style="stroke:#A80036;stroke-width:1.0;"/><polygon fill="#A80036" points="1202.5607,478.1485,1204.8896,468.5789,1201.668,473.2288,1197.0181,470.0072,1202.5607,478.1485" style="stroke:#A80036;stroke-width:1.0;"/><!--MD5=[4da7ceb5efb1f468ac0d40acfb076e09]
link at to atpi--><path d="M896.2664,266.035 C904.5394,289.422 915.8804,321.482 924.5334,345.944 " fill="none" id="at-to-atpi" style="stroke:#A80036;stroke-width:1.0;"/><polygon fill="#A80036" points="926.2264,350.73,926.9959,340.9113,924.5589,346.0162,919.4539,343.5792,926.2264,350.73" style="stroke:#A80036;stroke-width:1.0;"/><!--MD5=[ee86b8bad08b156bd90dc8e07667b7a6]
link ai to ax--><path d="M1050.2384,273.099 C1050.2384,304.154 1050.2384,346.217 1050.2384,367.802 " fill="none" id="ai-to-ax" style="stroke:#A80036;stroke-width:1.0;"/><polygon fill="#A80036" points="1050.2384,372.829,1054.2384,363.829,1050.2384,367.829,1046.2384,363.829,1050.2384,372.829" style="stroke:#A80036;stroke-width:1.0;"/><!--MD5=[38007367ea75dcb1cfa677409b5a13cb]
link ptaa to player_attacks--><path d="M167.4994,592.347 C182.6604,607.246 201.7844,622.95 222.2384,632.22 C257.7374,648.308 270.7544,637.057 309.2384,643.22 C366.9344,652.46 431.9194,665.212 480.0094,675.102 " fill="none" id="ptaa-to-player_attacks" style="stroke:#A80036;stroke-width:1.0;"/><polygon fill="#A80036" points="485.1974,676.171,477.1892,670.4378,480.3001,675.1624,475.5755,678.2733,485.1974,676.171" style="stroke:#A80036;stroke-width:1.0;"/><!--MD5=[79935d379e6ecdd3bc55deae96ca010d]
link ptaa to player_surrenders--><path d="M171.3584,592.268 C186.2584,606.107 204.1694,621.07 222.2384,632.22 C409.7834,747.946 481.3474,726.26 692.2384,790.22 C696.0564,791.378 699.9554,792.5901 703.8864,793.836 " fill="none" id="ptaa-to-player_surrenders" style="stroke:#A80036;stroke-width:1.0;"/><polygon fill="#A80036" points="708.8784,795.4308,701.5223,788.8819,704.1155,793.9094,699.088,796.5025,708.8784,795.4308" style="stroke:#A80036;stroke-width:1.0;"/><!--MD5=[05d48343aff73d788e6c2cc71c4259cf]
link ptai to px--><path d="M356.5784,553.22 C366.3834,553.22 376.1884,553.22 385.9924,553.22 " fill="none" id="ptai-to-px" style="stroke:#A80036;stroke-width:1.0;"/><polygon fill="#A80036" points="391.1204,553.22,382.1204,549.22,386.1204,553.22,382.1204,557.22,391.1204,553.22" style="stroke:#A80036;stroke-width:1.0;"/><!--MD5=[80c98cbfc2531676bc7702e67db585d8]
link atpa to ai_surrenders--><path d="M806.4424,415.201 C851.8464,480.652 941.7624,633.761 867.2384,730.22 C802.6504,813.8192 738.1454,758.942 637.2384,790.22 C632.8964,791.5658 628.4504,792.9985 623.9764,794.4818 " fill="none" id="atpa-to-ai_surrenders" style="stroke:#A80036;stroke-width:1.0;"/><polygon fill="#A80036" points="619.1144,796.1094,628.9186,797.0456,623.8558,794.5222,626.3791,789.4594,619.1144,796.1094" style="stroke:#A80036;stroke-width:1.0;"/><!--MD5=[3766315f4155da083d7c61391947ab66]
link atpa to ai_fight_ok--><path d="M740.9694,414.936 C704.3104,441.888 650.9544,481.115 610.6554,510.742 " fill="none" id="atpa-to-ai_fight_ok" style="stroke:#A80036;stroke-width:1.0;"/><polygon fill="#A80036" points="606.3034,513.942,615.9236,511.832,610.3313,510.9796,611.1837,505.3874,606.3034,513.942" style="stroke:#A80036;stroke-width:1.0;"/><!--MD5=[51d5e91516d919df3a98765c7d5d77f6]
link atpi to ax--><path d="M1004.7734,382.86 C1014.7554,382.86 1024.7384,382.86 1034.7184,382.86 " fill="none" id="atpi-to-ax" style="stroke:#A80036;stroke-width:1.0;"/><polygon fill="#A80036" points="1039.9384,382.86,1030.9384,378.86,1034.9384,382.86,1030.9384,386.86,1039.9384,382.86" style="stroke:#A80036;stroke-width:1.0;"/><!--MD5=[010ad784cd7536557a2cb0f2fd231703]
link ai_fight_ok to player_attacks--><path d="M553.3944,592.466 C552.9704,611.712 552.4584,634.919 552.0394,653.891 " fill="none" id="ai_fight_ok-to-player_attacks" style="stroke:#A80036;stroke-width:1.0;"/><polygon fill="#A80036" points="551.9244,659.123,556.1239,650.2144,552.0358,654.1242,548.1259,650.0361,551.9244,659.123" style="stroke:#A80036;stroke-width:1.0;"/><!--MD5=[6d577b7444299d0e9290d945c88fb4f9]
link ai_fight_ok to player_surrenders--><path d="M594.4194,592.618 C608.5384,607.509 623.7344,625.282 635.2384,643.22 C657.9214,678.59 647.0414,696.595 672.2384,730.22 C688.4894,751.906 710.9644,771.589 731.4424,787.0578 " fill="none" id="ai_fight_ok-to-player_surrenders" style="stroke:#A80036;stroke-width:1.0;"/><polygon fill="#A80036" points="735.5094,790.0946,730.6917,781.5045,731.5032,787.1028,725.9049,787.9144,735.5094,790.0946" style="stroke:#A80036;stroke-width:1.0;"/><!--MD5=[30bd06fb1477be672f2d75d245523753]
link ai_attacks to player_attacks--><path d="M689.0084,713.548 C666.8984,716.118 644.7874,715.725 622.6774,712.37 " fill="none" id="ai_attacks-to-player_attacks" style="stroke:#A80036;stroke-width:1.0;"/><polygon fill="#A80036" points="617.6604,711.558,625.9062,716.9437,622.5962,712.3564,627.1836,709.0464,617.6604,711.558" style="stroke:#A80036;stroke-width:1.0;"/><!--MD5=[9de155524f98c4421caca3c3395e8f35]
link player_attacks to ai_attacks--><path d="M617.6604,670.882 C639.7704,667.079 661.8814,666.238 683.9914,668.36 " fill="none" id="player_attacks-to-ai_attacks" style="stroke:#A80036;stroke-width:1.0;"/><polygon fill="#A80036" points="689.0084,668.892,680.4816,663.9631,684.0364,668.3635,679.636,671.9183,689.0084,668.892" style="stroke:#A80036;stroke-width:1.0;"/><!--MD5=[6ae5b430007d4cb0cc333086c37b26a0]
link ai_attacks to player_surrenders--><path d="M773.3634,730.227 C775.2344,747.469 777.4374,767.768 779.2874,784.814 " fill="none" id="ai_attacks-to-player_surrenders" style="stroke:#A80036;stroke-width:1.0;"/><polygon fill="#A80036" points="779.8494,789.9927,782.8538,780.6133,779.3093,785.022,774.9006,781.4774,779.8494,789.9927" style="stroke:#A80036;stroke-width:1.0;"/><!--MD5=[df5d75c5131ebfa135f4f4861b468fd7]
link player_attacks to ai_surrenders--><path d="M551.2384,723.447 C551.2384,741.85 551.2384,765.229 551.2384,784.511 " fill="none" id="player_attacks-to-ai_surrenders" style="stroke:#A80036;stroke-width:1.0;"/><polygon fill="#A80036" points="551.2384,789.8332,555.2384,780.8332,551.2384,784.8332,547.2384,780.8332,551.2384,789.8332" style="stroke:#A80036;stroke-width:1.0;"/><!--MD5=[c922ff979083841bf4c70e81e2110d1c]
reverse link fx to player_surrenders--><path d="M679.5734,822.22 C689.3434,822.22 699.1124,822.22 708.8814,822.22 " fill="none" id="fx-backto-player_surrenders" style="stroke:#A80036;stroke-width:1.0;"/><polygon fill="#A80036" points="674.4654,822.22,683.4654,826.22,679.4654,822.22,683.4654,818.22,674.4654,822.22" style="stroke:#A80036;stroke-width:1.0;"/><!--MD5=[989c5b50eb74f5ffcc79dc6f291a95c8]
link atpi to GMN679107--><path d="M970.0424,350.552 C989.0094,334.179 1014.3054,315.977 1040.7384,307.36 C1104.9684,286.423 1127.5484,289.627 1192.7384,307.36 C1217.2084,314.016 1241.7684,326.64 1262.7784,339.688 " fill="none" id="atpi-GMN679107" style="stroke:#A80036;stroke-width:1.0;stroke-dasharray:7.0,7.0;"/><!--MD5=[53bf07e4649f4cc29406df5ff0d6cc3f]
link ai_surrenders to fx--><path d="M618.7734,822.22 C628.7554,822.22 638.7364,822.22 648.7184,822.22 " fill="none" id="ai_surrenders-to-fx" style="stroke:#A80036;stroke-width:1.0;"/><polygon fill="#A80036" points="653.9374,822.22,644.9374,818.22,648.9374,822.22,644.9374,826.22,653.9374,822.22" style="stroke:#A80036;stroke-width:1.0;"/><!--MD5=[d25c5df7aac92c0df0d4dd82c31110db]
@startuml
hide empty description

[*] -> new_ship
new_ship : <compare visibility>
new_ship - -> player_sees
new_ship - -> ai_sees

state player_sees {
state "Avoid" as pi
state "Trade" as pt
state "Attack" as pa
state "Treach" as ptaa
state "Ignore" as ptai
state px <<end>>
player_sees : "You see a ship. It doesn't see you"
player_sees : [Attack] [Trade] [Avoid]
player_sees - -> pa
player_sees - -> pt
player_sees - -> pi
}

state ai_sees {
state "Attack" as aa
state "Trade" as at
state "Avoid" as ai
state "Treach" as atpa
state "Ignore" as atpi
state ax <<end>>
ai_sees : <ai decides>
ai_sees - -> aa
ai_sees - -> at
ai_sees - -> ai
}

state Fight {
state ai_fight_ok
state ai_attacks
state player_attacks
state player_surrenders
state ai_surrenders
state fx <<end>>
}

state trade {
state trade_ok
state trade_x <<end>>
trade: "They want to buy X
trade: and sell you Y"
trade: [Deal] [No deal]
trade_ok: +1 rating
trade_ok: <move cargo>
trade - -> trade_ok
trade - -> trade_x
trade_ok - -> trade_x
}

pa : -1 rating
pa : <ai decides>
pa - -> ai_surrenders
pa - -> ai_fight_ok

pt: +1 rating up to 0
pt : <ai decides>
pt - -> ptaa
pt - -> trade
pt - -> ptai

pi - -> px


aa: +1 rating up to 0
aa : "The ship approaches
aa : you aggressively"
aa : [Attack] [Surrender]
aa - -> player_attacks
aa - -> player_surrenders

at : "The ship wants to trade"
at : [Attack] [Trade] [Ignore]
at - -> atpa
at - -> trade
at - -> atpi

ai: "You didn't
ai: see a ship"
ai : [ok]
ai - -> ax

ptaa: +2 rating up to 0
ptaa: "They chose war"
ptaa: [Attack] [Surrender]
ptaa - ->player_attacks
ptaa - ->player_surrenders

ptai: "Not interested"
ptai : [ok]
ptai -> px


atpa: -2 rating
atpa : <ai decides>
atpa - -> ai_surrenders
atpa - -> ai_fight_ok

atpi: -1 rating down to 0
atpi: or skip
atpi -> ax

ai_fight_ok: "The ship is
ai_fight_ok: going to attack"
ai_fight_ok: [Attack] [Surrender]
ai_fight_ok - ->player_attacks
ai_fight_ok - ->player_surrenders

ai_attacks: <damage player ship>
ai_attacks: "They attack you!"
ai_attacks: [Attack] [Surrender]
ai_attacks -> player_attacks
ai_attacks - -> player_surrenders

player_attacks: <damage ai ship>
player_attacks: <ai decides>
player_attacks -> ai_attacks
player_attacks - -> ai_surrenders

player_surrenders: +1 rating up to 0
player_surrenders: <ai takes cargo>
player_surrenders -l->fx

note right of atpi
"Skip" happens when
you click the button
rather fast (within
800ms). Rating is not
decreased in this case.
end note

ai_surrenders: -1 rating down to 0
ai_surrenders: "Take cargo"
ai_surrenders ->fx
@enduml

PlantUML version 1.2021.2beta9(Unknown compile time)
(GPL source distribution)
Java Runtime: Java(TM) SE Runtime Environment
JVM: Java HotSpot(TM) 64-Bit Server VM
Default Encoding: UTF-8
Language: en
Country: US
--></g></svg>