<svg xmlns="http://www.w3.org/2000/svg" xmlns:xlink="http://www.w3.org/1999/xlink" width="300px" height="300px" viewBox="0 0 300 300" preserveAspectRatio="xMidYMid meet" ><rect id="svgEditorBackground" x="0" y="0" width="1290" height="640" style="fill:none; stroke: none;"/><line id="e1_line" x1="0" y1="100" x2="300" y2="100" style="stroke: black;"/><line id="e2_line" x1="0" y1="200" x2="300" y2="200" style="stroke: black;"/><line id="e3_line" x1="100" y1="0" x2="100" y2="300" style="stroke: black;"/><line id="e4_line" x1="200" y1="0" x2="200" y2="300" style="stroke: black;"/><line id="e5_line" x1="0.0000013814908470521914" y1="75.0000228881836" x2="299.9999694824219" y2="75.0000228881836" style="stroke: black;stroke-dasharray:4px, 4px;"/><line id="e6_line" x1="0.0000013814908470521914" y1="125.00003051757812" x2="299.9999694824219" y2="125.00003051757812" style="stroke: black;stroke-dasharray:4px, 4px;"/><line id="e7_line" x1="0.000003366826859974026" y1="174.99998017783477" x2="299.9998839191187" y2="174.99998017783477" style="stroke: black;stroke-dasharray:4px, 4px;"/><line id="e8_line" x1="0.000003366826859974026" y1="224.9999649190457" x2="299.9998839191187" y2="224.9999649190457" style="stroke: black;stroke-dasharray:4px, 4px;"/><line id="e9_line" x1="75" y1="0" x2="75" y2="300" style="stroke: black;stroke-dasharray:4px, 4px;"/><line id="e10_line" x1="125" y1="0" x2="125" y2="300" style="stroke: black;stroke-dasharray:4px, 4px;"/><line id="e11_line" x1="174.9999984313395" y1="-9.826410618529735e-7" x2="174.9999984313395" y2="300.0000245281469" style="stroke: black;stroke-dasharray:4px, 4px;"/><line id="e12_line" x1="224.99996791376137" y1="-9.826410618529735e-7" x2="224.99996791376137" y2="300.0000245281469" style="stroke: black;stroke-dasharray:4px, 4px;"/><text style="fill:black;font-family:Arial;font-size:20px;" x="150" y="149.533" id="e2_texte" transform="matrix(1 0 0 1 -5.14019 5.60748)">a</text><text style="fill:black;font-family:Arial;font-size:20px;" x="150.467" y="100.935" id="e3_texte" transform="matrix(1 0 0 1 -6.07477 4.6729)">b</text><text style="fill:black;font-family:Arial;font-size:20px;" x="200" y="150.468" id="e4_texte" transform="matrix(1 0 0 1 -6.07477 4.6729)">b</text><text style="fill:black;font-family:Arial;font-size:20px;" x="100.467" y="150.935" id="e1_texte" transform="matrix(1 0 0 1 -6.07477 4.6729)">b</text><text style="fill:black;font-family:Arial;font-size:20px;" x="150.467" y="200.468" id="e5_texte" transform="matrix(1 0 0 1 -6.07477 4.6729)">b</text><text style="fill:black;font-family:Arial;font-size:20px;" x="99.0654" y="100.467" id="e6_texte" transform="matrix(1 0 0 1 -4.6729 6.54206)">c</text><text style="fill:black;font-family:Arial;font-size:20px;" x="200" y="99.0651" id="e14_texte" transform="matrix(1 0 0 1 -4.6729 6.54206)">c</text><text style="fill:black;font-family:Arial;font-size:20px;" x="200" y="199.065" id="e7_texte" transform="matrix(1 0 0 1 -4.6729 6.54206)">c</text><text style="fill:black;font-family:Arial;font-size:20px;" x="98.5981" y="198.598" id="e8_texte" transform="matrix(1 0 0 1 -4.6729 6.54206)">c</text></svg>