<svg xmlns="http://www.w3.org/2000/svg" xmlns:xlink="http://www.w3.org/1999/xlink" width="300px" height="300px" viewBox="0 0 300 300" preserveAspectRatio="xMidYMid meet" ><defs id="svgEditorDefs"><marker id="arrow20-16-right" markerHeight="16" markerUnits="strokeWidth" markerWidth="20" orient="auto" refX="-3" refY="0" viewBox="-15 -5 20 20"><path d="M -15 -5 L 0 0 L -15 5 z" fill="black"/></marker></defs><rect id="svgEditorBackground" x="0" y="0" width="1290" height="640" style="fill:none; stroke: none;"/><line id="e1_line" x1="50" y1="100" x2="275" y2="100" style="stroke: black;"/><line id="e2_line" x1="50" y1="200" x2="275" y2="200" style="stroke: black;"/><line id="e3_line" x1="100" y1="50" x2="100" y2="275" style="stroke: black;"/><line id="e4_line" x1="200" y1="50" x2="200" y2="275" style="stroke: black;"/><line id="e5_line" x1="50" y1="75" x2="275" y2="75" style="stroke: black;stroke-dasharray:4px, 4px;"/><line id="e6_line" x1="50" y1="125" x2="275" y2="125" style="stroke: black;stroke-dasharray:4px, 4px;"/><line id="e7_line" x1="50" y1="175" x2="275" y2="175" style="stroke: black;stroke-dasharray:4px, 4px;"/><line id="e8_line" x1="50" y1="225" x2="275" y2="225" style="stroke: black;stroke-dasharray:4px, 4px;"/><line id="e9_line" x1="75" y1="50" x2="75" y2="275" style="stroke: black;stroke-dasharray:4px, 4px;"/><line id="e10_line" x1="125" y1="50" x2="125" y2="275" style="stroke: black;stroke-dasharray:4px, 4px;"/><line id="e11_line" x1="174.9999984313395" y1="50" x2="174.9999984313395" y2="275" style="stroke: black;stroke-dasharray:4px, 4px;"/><line id="e12_line" x1="225" y1="50" x2="225" y2="275.0000059894312" style="stroke: black;stroke-dasharray:4px, 4px;"/><line id="e13_line" x1="25" y1="25" x2="275" y2="25" style="stroke:black;fill:none;stroke-width:1px;marker-end:url(#arrow20-16-right);"/><line id="e14_line" x1="25" y1="25" x2="25" y2="275" style="stroke:black;fill:none;stroke-width:1px;marker-end:url(#arrow20-16-right);"/><text style="fill:black;font-family:Arial;font-size:20px;" x="247.196" y="19.6262" id="e20_texte">x</text><text style="fill:black;font-family:Arial;font-size:20px;" x="240" y="45" id="e21_texte" dx="" dy="">2x</text><text style="fill:black;font-family:Arial;font-size:20px;" x="10" y="255" id="e22_texte" dy="" dx="">y</text><text style="fill:black;font-family:Arial;font-size:20px;" x="33.6449" y="241.589" id="e24_texte" transform="matrix(1 0 0 1 -4.6729 14.9533)">2y</text><text style="fill:black;font-family:Arial;font-size:20px;" x="25" y="20" id="e25_texte" dx="" dy="">0</text><text style="fill:black;font-family:Arial;font-size:20px;" x="10" y="30" id="e26_texte" dy="" dx="">0</text><text style="fill:black;font-family:Arial;font-size:20px;" x="95" y="20" id="e27_texte" dx="" dy="">1</text><text style="fill:black;font-family:Arial;font-size:20px;" x="195" y="20" id="e28_texte" dx="" dy="">2</text><text style="fill:black;font-family:Arial;font-size:20px;" x="50" y="42.5234" id="e29_texte"/><text style="fill:black;font-family:Arial;font-size:20px;" x="95" y="45" id="e30_texte" dx="" dy="">2</text><text style="fill:black;font-family:Arial;font-size:20px;" x="145" y="45" id="e31_texte" dy="" dx="">3</text><text style="fill:black;font-family:Arial;font-size:20px;" x="195" y="45" id="e32_texte" dy="" dx="">4</text><text style="fill:black;font-family:Arial;font-size:20px;" x="10" y="105" id="e33_texte" dx="" dy="">1</text><text style="fill:black;font-family:Arial;font-size:20px;" x="10" y="205" id="e34_texte" dx="" dy="">2</text><text style="fill:black;font-family:Arial;font-size:20px;" x="30" y="105" id="e35_texte" dy="" dx="">2</text><text style="fill:black;font-family:Arial;font-size:20px;" x="30" y="155" id="e36_texte" dx="" dy="">3</text><text style="fill:black;font-family:Arial;font-size:20px;" x="30" y="205" id="e37_texte" dx="" dy="">4</text></svg>