<?xml version="1.0" encoding="UTF-8" standalone="no"?><svg xmlns="http://www.w3.org/2000/svg" xmlns:xlink="http://www.w3.org/1999/xlink" contentScriptType="application/ecmascript" contentStyleType="text/css" height="178px" preserveAspectRatio="none" style="width:436px;height:178px;" version="1.1" viewBox="0 0 436 178" width="436px" zoomAndPan="magnify"><defs><filter height="300%" id="f15tn2rizjivx7" width="300%" x="-1" y="-1"><feGaussianBlur result="blurOut" stdDeviation="2.0"/><feColorMatrix in="blurOut" result="blurOut2" type="matrix" values="0 0 0 0 0 0 0 0 0 0 0 0 0 0 0 0 0 0 .4 0"/><feOffset dx="4.0" dy="4.0" in="blurOut2" result="blurOut3"/><feBlend in="SourceGraphic" in2="blurOut3" mode="normal"/></filter></defs><g><path d="M358.5,14.5 L358.5,39.6328 L427.5,39.6328 L427.5,24.5 L417.5,14.5 L358.5,14.5 " fill="#FBFB77" filter="url(#f15tn2rizjivx7)" style="stroke:#A80036;stroke-width:1.0;"/><path d="M417.5,14.5 L417.5,24.5 L427.5,24.5 L417.5,14.5 " fill="#FBFB77" style="stroke:#A80036;stroke-width:1.0;"/><text fill="#000000" font-family="sans-serif" font-size="13" lengthAdjust="spacing" textLength="48" x="364.5" y="31.5669">append</text><ellipse cx="16" cy="27" fill="#000000" filter="url(#f15tn2rizjivx7)" rx="10" ry="10" style="stroke:none;stroke-width:1.0;"/><rect fill="#FEFECE" filter="url(#f15tn2rizjivx7)" height="40" rx="12.5" ry="12.5" style="stroke:#A80036;stroke-width:1.5;" width="75" x="61.5" y="7"/><text fill="#000000" font-family="sans-serif" font-size="14" lengthAdjust="spacing" textLength="65" x="66.5" y="31.8467">old_node</text><rect fill="#FEFECE" filter="url(#f15tn2rizjivx7)" height="40" rx="12.5" ry="12.5" style="stroke:#A80036;stroke-width:1.5;" width="82" x="241" y="7"/><text fill="#000000" font-family="sans-serif" font-size="14" lengthAdjust="spacing" textLength="72" x="246" y="31.8467">new_node</text><rect fill="#FEFECE" filter="url(#f15tn2rizjivx7)" height="40" rx="12.5" ry="12.5" style="stroke:#A80036;stroke-width:1.5;" width="50" x="165" y="124"/><text fill="#000000" font-family="sans-serif" font-size="14" lengthAdjust="spacing" textLength="26" x="177" y="148.8467">self</text><!--MD5=[6b99cadf27a9f60d41375e5d0e3f7be3]
link *start to old_node--><path d="M26.0508,27 C36.0807,27 46.1106,27 56.1406,27 " fill="none" id="*start-to-old_node" style="stroke:#A80036;stroke-width:1.0;"/><polygon fill="#A80036" points="61.3856,27,52.3856,23,56.3856,27,52.3856,31,61.3856,27" style="stroke:#A80036;stroke-width:1.0;"/><!--MD5=[05240017c7d3795d9de7555db903dabc]
reverse link old_node to new_node--><path d="M142.004,27 C171.894,27 211.495,27 240.949,27 " fill="none" id="old_node-backto-new_node" style="stroke:#008000;stroke-width:1.0;"/><polygon fill="#008000" points="136.918,27,145.918,31,141.918,27,145.918,23,136.918,27" style="stroke:#008000;stroke-width:1.0;"/><text fill="#000000" font-family="sans-serif" font-size="13" lengthAdjust="spacing" textLength="68" x="154.75" y="20.0669">prev_node</text><!--MD5=[7f85eb9e50b591fc7496f713fdc188a3]
link old_node to new_node--><path d="M136.519,42.645 C142.205,44.446 148.07,45.995 153.75,47 C184.385,52.42 193.063,52.121 223.75,47 C227.68,46.344 231.701,45.455 235.701,44.415 " fill="none" id="old_node-to-new_node" style="stroke:#008000;stroke-width:1.0;"/><polygon fill="#008000" points="240.751,43.023,231.0117,41.5584,235.9308,44.3516,233.1375,49.2707,240.751,43.023" style="stroke:#008000;stroke-width:1.0;"/><text fill="#000000" font-family="sans-serif" font-size="13" lengthAdjust="spacing" textLength="68" x="154.75" y="43.0669">next_node</text><!--MD5=[fe8306942789f23139d8e1dde2212273]
reverse link new_node to self--><path d="M263.303,51.372 C246.262,72.672 221.389,103.7637 205.449,123.6888 " fill="none" id="new_node-backto-self" style="stroke:#008000;stroke-width:1.0;"/><polygon fill="#008000" points="266.601,47.248,257.8557,51.7778,263.4779,51.1526,264.1031,56.7748,266.601,47.248" style="stroke:#008000;stroke-width:1.0;"/><text fill="#000000" font-family="sans-serif" font-size="13" lengthAdjust="spacing" textLength="19" x="242" y="90.0669">tail</text><!--MD5=[b6da297a964c7e08edbde0a2734718d8]
reverse link old_node to self--><path d="M117.494,51.372 C134.349,72.672 158.952,103.7637 174.719,123.6888 " fill="none" id="old_node-backto-self" style="stroke:#FF0000;stroke-width:1.0;"/><polygon fill="#FF0000" points="114.231,47.248,116.6804,56.7874,117.3342,51.1685,122.9532,51.8223,114.231,47.248" style="stroke:#FF0000;stroke-width:1.0;"/><text fill="#000000" font-family="sans-serif" font-size="13" lengthAdjust="spacing" textLength="19" x="150" y="90.0669">tail</text><!--MD5=[5aaf561cbf45637874b333fe92f8126b]
@startuml
hide empty description

note "append" as N1

[*] -> old_node
new_node -l[#green]-> old_node : prev_node

old_node -r[#green]-> new_node : next_node

self -up[#green]-> new_node: tail
self -up[#red]-> old_node: tail
@enduml

PlantUML version 1.2021.2beta13(Unknown compile time)
(GPL source distribution)
Java Runtime: Java(TM) SE Runtime Environment
JVM: Java HotSpot(TM) 64-Bit Server VM
Default Encoding: UTF-8
Language: en
Country: US
--></g></svg>