<?xml version="1.0" encoding="UTF-8" standalone="no"?><svg xmlns="http://www.w3.org/2000/svg" xmlns:xlink="http://www.w3.org/1999/xlink" contentScriptType="application/ecmascript" contentStyleType="text/css" height="203px" preserveAspectRatio="none" style="width:586px;height:203px;" version="1.1" viewBox="0 0 586 203" width="586px" zoomAndPan="magnify"><defs><filter height="300%" id="f4ek96byc4uin" width="300%" x="-1" y="-1"><feGaussianBlur result="blurOut" stdDeviation="2.0"/><feColorMatrix in="blurOut" result="blurOut2" type="matrix" values="0 0 0 0 0 0 0 0 0 0 0 0 0 0 0 0 0 0 .4 0"/><feOffset dx="4.0" dy="4.0" in="blurOut2" result="blurOut3"/><feBlend in="SourceGraphic" in2="blurOut3" mode="normal"/></filter></defs><g><path d="M469,39.682 L469,64.8148 L577,64.8148 L577,49.682 L567,39.682 L469,39.682 " fill="#FBFB77" filter="url(#f4ek96byc4uin)" style="stroke:#A80036;stroke-width:1.0;"/><path d="M567,39.682 L567,49.682 L577,49.682 L567,39.682 " fill="#FBFB77" style="stroke:#A80036;stroke-width:1.0;"/><text fill="#000000" font-family="sans-serif" font-size="13" lengthAdjust="spacing" textLength="87" x="475" y="56.7489">delete middle</text><ellipse cx="16" cy="52.182" fill="#000000" filter="url(#f4ek96byc4uin)" rx="10" ry="10" style="stroke:none;stroke-width:1.0;"/><rect fill="#FEFECE" filter="url(#f4ek96byc4uin)" height="40" rx="12.5" ry="12.5" style="stroke:#A80036;stroke-width:1.5;" width="86" x="61" y="32.182"/><text fill="#000000" font-family="sans-serif" font-size="14" lengthAdjust="spacing" textLength="76" x="66" y="57.0287">prev_node</text><rect fill="#FEFECE" filter="url(#f4ek96byc4uin)" height="40" rx="12.5" ry="12.5" style="stroke:#A80036;stroke-width:1.5;" width="75" x="182.5" y="32.182"/><text fill="#000000" font-family="sans-serif" font-size="14" lengthAdjust="spacing" textLength="65" x="187.5" y="57.0287">old_node</text><rect fill="#FEFECE" filter="url(#f4ek96byc4uin)" height="40" rx="12.5" ry="12.5" style="stroke:#A80036;stroke-width:1.5;" width="86" x="293" y="32.182"/><text fill="#000000" font-family="sans-serif" font-size="14" lengthAdjust="spacing" textLength="76" x="298" y="57.0287">next_node</text><ellipse cx="424" cy="52.182" filter="url(#f4ek96byc4uin)" rx="10" ry="10" style="stroke:#000000;stroke-width:1.0;fill:none;"/><ellipse cx="424.5" cy="52.682" fill="#000000" rx="6" ry="6" style="stroke:none;stroke-width:1.0;"/><rect fill="#FEFECE" filter="url(#f4ek96byc4uin)" height="40" rx="12.5" ry="12.5" style="stroke:#A80036;stroke-width:1.5;" width="50" x="195" y="149.182"/><text fill="#000000" font-family="sans-serif" font-size="14" lengthAdjust="spacing" textLength="26" x="207" y="174.0287">self</text><!--MD5=[9b888b93d26e789c3e084bb510ba8a70]
link *start to prev_node--><path d="M26.3125,52.182 C36.1325,52.182 45.9525,52.182 55.7725,52.182 " fill="none" id="*start-to-prev_node" style="stroke:#A80036;stroke-width:1.0;"/><polygon fill="#A80036" points="60.9077,52.182,51.9077,48.182,55.9077,52.182,51.9077,56.182,60.9077,52.182" style="stroke:#A80036;stroke-width:1.0;"/><!--MD5=[5e9d3166fe3871a3585d19f0e3349bba]
link prev_node to old_node--><path d="M147.047,66.185 C157.169,67.535 167.292,67.514 177.414,66.123 " fill="none" id="prev_node-to-old_node" style="stroke:#FF0000;stroke-width:1.0;"/><polygon fill="#FF0000" points="182.384,65.329,172.8659,62.7981,177.4465,66.1174,174.1273,70.6981,182.384,65.329" style="stroke:#FF0000;stroke-width:1.0;"/><!--MD5=[50ff2deaab8d77a0cdd38844a2f01daf]
reverse link prev_node to old_node--><path d="M152.292,37.602 C162.323,36.734 172.353,37.211 182.384,39.035 " fill="none" id="prev_node-backto-old_node" style="stroke:#FF0000;stroke-width:1.0;"/><polygon fill="#FF0000" points="147.047,38.179,156.4298,41.1728,152.0171,37.6333,155.5566,33.2206,147.047,38.179" style="stroke:#FF0000;stroke-width:1.0;"/><!--MD5=[f22717afe4a4415b4261630b9204acee]
link prev_node to next_node--><path d="M144.626,32.152 C154.844,28.032 165.956,24.306 176.667,22.182 C214.449,14.69 225.551,14.69 263.333,22.182 C272.37,23.974 281.693,26.907 290.524,30.254 " fill="none" id="prev_node-to-next_node" style="stroke:#008000;stroke-width:1.0;"/><polygon fill="#008000" points="295.374,32.152,288.4499,25.1479,290.7177,30.3303,285.5352,32.5981,295.374,32.152" style="stroke:#008000;stroke-width:1.0;"/><!--MD5=[be557e34223174c08fa48538dffecde1]
reverse link prev_node to next_node--><path d="M142.286,29.631 C156.287,22.586 172.568,15.731 188.333,12.182 C215.794,6 224.206,6 251.667,12.182 C269.215,16.133 287.4,24.177 302.371,32.023 " fill="none" id="prev_node-backto-next_node" style="stroke:#008000;stroke-width:1.0;"/><polygon fill="#008000" points="137.629,32.023,147.4623,31.4689,142.0766,29.7385,143.807,24.3528,137.629,32.023" style="stroke:#008000;stroke-width:1.0;"/><!--MD5=[981835e8dc282f8fb1f673b2082ad183]
reverse link old_node to next_node--><path d="M262.561,66.119 C272.649,67.508 282.736,67.536 292.824,66.202 " fill="none" id="old_node-backto-next_node" style="stroke:#FF0000;stroke-width:1.0;"/><polygon fill="#FF0000" points="257.609,65.328,265.8655,70.6974,262.5464,66.1166,267.1272,62.7976,257.609,65.328" style="stroke:#FF0000;stroke-width:1.0;"/><!--MD5=[dde57be673fa8ef43962b4c5e2bf69e7]
link old_node to next_node--><path d="M257.609,39.036 C267.605,37.218 277.601,36.737 287.597,37.593 " fill="none" id="old_node-to-next_node" style="stroke:#FF0000;stroke-width:1.0;"/><polygon fill="#FF0000" points="292.824,38.162,284.3101,33.2108,287.8534,37.6205,283.4437,41.1638,292.824,38.162" style="stroke:#FF0000;stroke-width:1.0;"/><!--MD5=[3c826dd9f07247336f769ba5f336e23e]
link next_node to *end--><path d="M379.312,52.182 C389.123,52.182 398.934,52.182 408.745,52.182 " fill="none" id="next_node-to-*end" style="stroke:#A80036;stroke-width:1.0;"/><polygon fill="#A80036" points="413.875,52.182,404.875,48.182,408.875,52.182,404.875,56.182,413.875,52.182" style="stroke:#A80036;stroke-width:1.0;"/><!--MD5=[b6da297a964c7e08edbde0a2734718d8]
reverse link old_node to self--><path d="M220,77.627 C220,98.8872 220,129.2778 220,148.8708 " fill="none" id="old_node-backto-self" style="stroke:#A80036;stroke-width:1.0;"/><polygon fill="#A80036" points="220,72.43,216,81.43,220,77.43,224,81.43,220,72.43" style="stroke:#A80036;stroke-width:1.0;"/><text fill="#000000" font-family="sans-serif" font-size="13" lengthAdjust="spacing" textLength="119" x="221" y="115.2489">_get_node_(index)</text><!--MD5=[a4f8476efb7ec5c4f37df3afc873b26f]
@startuml
hide empty description

note "delete middle" as N1

[*] -> prev_node
prev_node -r[#red]-> old_node
prev_node -r[#green]-> next_node

next_node -l[#green]-> prev_node
next_node -l[#red]-> old_node
next_node -> [*]

old_node -l[#red]> prev_node
old_node -r[#red]> next_node

self -u->old_node: _get_node_(index)
@enduml

PlantUML version 1.2021.2beta14(Unknown compile time)
(GPL source distribution)
Java Runtime: Java(TM) SE Runtime Environment
JVM: Java HotSpot(TM) 64-Bit Server VM
Default Encoding: UTF-8
Language: en
Country: US
--></g></svg>