<?xml version="1.0" encoding="UTF-8" standalone="no"?><svg xmlns="http://www.w3.org/2000/svg" xmlns:xlink="http://www.w3.org/1999/xlink" contentScriptType="application/ecmascript" contentStyleType="text/css" height="201px" preserveAspectRatio="none" style="width:500px;height:201px;" version="1.1" viewBox="0 0 500 201" width="500px" zoomAndPan="magnify"><defs><filter height="300%" id="f1wg40x5624hbm" width="300%" x="-1" y="-1"><feGaussianBlur result="blurOut" stdDeviation="2.0"/><feColorMatrix in="blurOut" result="blurOut2" type="matrix" values="0 0 0 0 0 0 0 0 0 0 0 0 0 0 0 0 0 0 .4 0"/><feOffset dx="4.0" dy="4.0" in="blurOut2" result="blurOut3"/><feBlend in="SourceGraphic" in2="blurOut3" mode="normal"/></filter></defs><g><path d="M379,54.784 L379,79.9168 L491,79.9168 L491,64.784 L481,54.784 L379,54.784 " fill="#FBFB77" filter="url(#f1wg40x5624hbm)" style="stroke:#A80036;stroke-width:1.0;"/><path d="M481,54.784 L481,64.784 L491,64.784 L481,54.784 " fill="#FBFB77" style="stroke:#A80036;stroke-width:1.0;"/><text fill="#000000" font-family="sans-serif" font-size="13" lengthAdjust="spacing" textLength="91" x="385" y="71.8509">delete first (0)</text><rect fill="#FEFECE" filter="url(#f1wg40x5624hbm)" height="40" rx="12.5" ry="12.5" style="stroke:#A80036;stroke-width:1.5;" width="86" x="203" y="47.284"/><text fill="#000000" font-family="sans-serif" font-size="14" lengthAdjust="spacing" textLength="76" x="208" y="72.1307">next_node</text><rect fill="#FEFECE" filter="url(#f1wg40x5624hbm)" height="40" rx="12.5" ry="12.5" style="stroke:#A80036;stroke-width:1.5;" width="50" x="7" y="47.284"/><text fill="#000000" font-family="sans-serif" font-size="14" lengthAdjust="spacing" textLength="37" x="13.5" y="72.1307">None</text><rect fill="#FEFECE" filter="url(#f1wg40x5624hbm)" height="40" rx="12.5" ry="12.5" style="stroke:#A80036;stroke-width:1.5;" width="75" x="92.5" y="47.284"/><text fill="#000000" font-family="sans-serif" font-size="14" lengthAdjust="spacing" textLength="65" x="97.5" y="72.1307">old_node</text><ellipse cx="334" cy="67.284" filter="url(#f1wg40x5624hbm)" rx="10" ry="10" style="stroke:#000000;stroke-width:1.0;fill:none;"/><ellipse cx="334.5" cy="67.784" fill="#000000" rx="6" ry="6" style="stroke:none;stroke-width:1.0;"/><rect fill="#FEFECE" filter="url(#f1wg40x5624hbm)" height="40" rx="12.5" ry="12.5" style="stroke:#A80036;stroke-width:1.5;" width="76" x="150" y="147.284"/><text fill="#000000" font-family="sans-serif" font-size="14" lengthAdjust="spacing" textLength="66" x="155" y="172.1307">self.head</text><!--MD5=[acce202a21b11ddf1e5d9089000a8a34]
reverse link None to next_node--><path d="M53.2072,43.522 C63.8624,33.362 77.6547,22.625 92.5,17.284 C123.865,6 135.498,7.958 167.5,17.284 C187.667,23.161 207.595,35.963 222.326,47.141 " fill="none" id="None-backto-next_node" style="stroke:#008000;stroke-width:1.0;"/><polygon fill="#008000" points="49.4274,47.228,58.6541,43.7829,52.9975,43.7274,53.053,38.0708,49.4274,47.228" style="stroke:#008000;stroke-width:1.0;"/><!--MD5=[981835e8dc282f8fb1f673b2082ad183]
reverse link old_node to next_node--><path d="M172.561,81.221 C182.649,82.61 192.736,82.638 202.824,81.304 " fill="none" id="old_node-backto-next_node" style="stroke:#FF0000;stroke-width:1.0;"/><polygon fill="#FF0000" points="167.609,80.43,175.8655,85.7994,172.5464,81.2186,177.1272,77.8996,167.609,80.43" style="stroke:#FF0000;stroke-width:1.0;"/><!--MD5=[dde57be673fa8ef43962b4c5e2bf69e7]
link old_node to next_node--><path d="M167.609,54.138 C177.605,52.32 187.601,51.839 197.597,52.695 " fill="none" id="old_node-to-next_node" style="stroke:#A80036;stroke-width:1.0;"/><polygon fill="#A80036" points="202.824,53.264,194.3101,48.3128,197.8534,52.7225,193.4437,56.2658,202.824,53.264" style="stroke:#A80036;stroke-width:1.0;"/><!--MD5=[3c826dd9f07247336f769ba5f336e23e]
link next_node to *end--><path d="M289.312,67.284 C299.123,67.284 308.934,67.284 318.745,67.284 " fill="none" id="next_node-to-*end" style="stroke:#A80036;stroke-width:1.0;"/><polygon fill="#A80036" points="323.875,67.284,314.875,63.284,318.875,67.284,314.875,71.284,323.875,67.284" style="stroke:#A80036;stroke-width:1.0;"/><!--MD5=[cc50252df911efdfc15c319e876c4724]
reverse link None to old_node--><path d="M62.4952,67.284 C72.4956,67.284 82.496,67.284 92.4963,67.284 " fill="none" id="None-backto-old_node" style="stroke:#A80036;stroke-width:1.0;"/><polygon fill="#A80036" points="57.2656,67.284,66.2656,71.284,62.2656,67.284,66.2656,63.284,57.2656,67.284" style="stroke:#A80036;stroke-width:1.0;"/><!--MD5=[35d6c8e074cb27800f8f98ce0c3ce8ed]
reverse link old_node to self.head--><path d="M144.177,92.2377 C154.133,109.0601 167.277,131.2694 176.565,146.9626 " fill="none" id="old_node-backto-self.head" style="stroke:#FF0000;stroke-width:1.0;"/><polygon fill="#FF0000" points="141.459,87.6456,142.6008,97.428,144.0057,91.9484,149.4853,93.3533,141.459,87.6456" style="stroke:#FF0000;stroke-width:1.0;"/><!--MD5=[be590d2743dea1c92abf1bfbb24dbb67]
reverse link next_node to self.head--><path d="M231.823,92.2377 C221.867,109.0601 208.723,131.2694 199.435,146.9626 " fill="none" id="next_node-backto-self.head" style="stroke:#008000;stroke-width:1.0;"/><polygon fill="#008000" points="234.541,87.6456,226.5147,93.3533,231.9943,91.9484,233.3992,97.428,234.541,87.6456" style="stroke:#008000;stroke-width:1.0;"/><!--MD5=[3aedf1709c8d41b7c10f08ba0932847b]
@startuml
hide empty description

note "delete first (0)" as N1

next_node -l[#green]-> None
next_node -l[#red]-> old_node
next_node -> [*]

old_node -l-> None
old_node -r-> next_node

self.head -up[#red]-> old_node
self.head -up[#green]-> next_node
@enduml

PlantUML version 1.2021.2beta9(Unknown compile time)
(GPL source distribution)
Java Runtime: Java(TM) SE Runtime Environment
JVM: Java HotSpot(TM) 64-Bit Server VM
Default Encoding: UTF-8
Language: en
Country: US
--></g></svg>