<?xml version="1.0" encoding="UTF-8" standalone="no"?><svg xmlns="http://www.w3.org/2000/svg" xmlns:xlink="http://www.w3.org/1999/xlink" contentScriptType="application/ecmascript" contentStyleType="text/css" height="201px" preserveAspectRatio="none" style="width:475px;height:201px;" version="1.1" viewBox="0 0 475 201" width="475px" zoomAndPan="magnify"><defs><filter height="300%" id="f1r9wuuayh2gnk" width="300%" x="-1" y="-1"><feGaussianBlur result="blurOut" stdDeviation="2.0"/><feColorMatrix in="blurOut" result="blurOut2" type="matrix" values="0 0 0 0 0 0 0 0 0 0 0 0 0 0 0 0 0 0 .4 0"/><feOffset dx="4.0" dy="4.0" in="blurOut2" result="blurOut3"/><feBlend in="SourceGraphic" in2="blurOut3" mode="normal"/></filter></defs><g><path d="M378,54.784 L378,79.9168 L466,79.9168 L466,64.784 L456,54.784 L378,54.784 " fill="#FBFB77" filter="url(#f1r9wuuayh2gnk)" style="stroke:#A80036;stroke-width:1.0;"/><path d="M456,54.784 L456,64.784 L466,64.784 L456,54.784 " fill="#FBFB77" style="stroke:#A80036;stroke-width:1.0;"/><text fill="#000000" font-family="sans-serif" font-size="13" lengthAdjust="spacing" textLength="67" x="384" y="71.8509">delete last</text><ellipse cx="16" cy="67.284" fill="#000000" filter="url(#f1r9wuuayh2gnk)" rx="10" ry="10" style="stroke:none;stroke-width:1.0;"/><rect fill="#FEFECE" filter="url(#f1r9wuuayh2gnk)" height="40" rx="12.5" ry="12.5" style="stroke:#A80036;stroke-width:1.5;" width="86" x="61" y="47.284"/><text fill="#000000" font-family="sans-serif" font-size="14" lengthAdjust="spacing" textLength="76" x="66" y="72.1307">prev_node</text><rect fill="#FEFECE" filter="url(#f1r9wuuayh2gnk)" height="40" rx="12.5" ry="12.5" style="stroke:#A80036;stroke-width:1.5;" width="75" x="182.5" y="47.284"/><text fill="#000000" font-family="sans-serif" font-size="14" lengthAdjust="spacing" textLength="65" x="187.5" y="72.1307">old_node</text><rect fill="#FEFECE" filter="url(#f1r9wuuayh2gnk)" height="40" rx="12.5" ry="12.5" style="stroke:#A80036;stroke-width:1.5;" width="50" x="293" y="47.284"/><text fill="#000000" font-family="sans-serif" font-size="14" lengthAdjust="spacing" textLength="37" x="299.5" y="72.1307">None</text><rect fill="#FEFECE" filter="url(#f1r9wuuayh2gnk)" height="40" rx="12.5" ry="12.5" style="stroke:#A80036;stroke-width:1.5;" width="64" x="130" y="147.284"/><text fill="#000000" font-family="sans-serif" font-size="14" lengthAdjust="spacing" textLength="54" x="135" y="172.1307">self.tail</text><!--MD5=[9b888b93d26e789c3e084bb510ba8a70]
link *start to prev_node--><path d="M26.3125,67.284 C36.1325,67.284 45.9525,67.284 55.7725,67.284 " fill="none" id="*start-to-prev_node" style="stroke:#A80036;stroke-width:1.0;"/><polygon fill="#A80036" points="60.9077,67.284,51.9077,63.284,55.9077,67.284,51.9077,71.284,60.9077,67.284" style="stroke:#A80036;stroke-width:1.0;"/><!--MD5=[5e9d3166fe3871a3585d19f0e3349bba]
link prev_node to old_node--><path d="M147.047,81.287 C157.169,82.637 167.292,82.616 177.414,81.225 " fill="none" id="prev_node-to-old_node" style="stroke:#FF0000;stroke-width:1.0;"/><polygon fill="#FF0000" points="182.384,80.431,172.8659,77.9001,177.4465,81.2194,174.1273,85.8001,182.384,80.431" style="stroke:#FF0000;stroke-width:1.0;"/><!--MD5=[50ff2deaab8d77a0cdd38844a2f01daf]
reverse link prev_node to old_node--><path d="M152.292,52.704 C162.323,51.836 172.353,52.313 182.384,54.137 " fill="none" id="prev_node-backto-old_node" style="stroke:#A80036;stroke-width:1.0;"/><polygon fill="#A80036" points="147.047,53.281,156.4298,56.2748,152.0171,52.7353,155.5566,48.3226,147.047,53.281" style="stroke:#A80036;stroke-width:1.0;"/><!--MD5=[f63563bd20af40b15d47dff12abcea21]
link prev_node to None--><path d="M127.674,47.141 C142.405,35.963 162.333,23.161 182.5,17.284 C214.502,7.958 226.135,6 257.5,17.284 C272.345,22.625 286.138,33.362 296.793,43.522 " fill="none" id="prev_node-to-None" style="stroke:#008000;stroke-width:1.0;"/><polygon fill="#008000" points="300.573,47.228,296.9485,38.0703,297.0033,43.7269,291.3468,43.7818,300.573,47.228" style="stroke:#008000;stroke-width:1.0;"/><!--MD5=[ecbf92cf232964ab331479e47fdc6105]
link old_node to None--><path d="M257.516,67.284 C267.575,67.284 277.635,67.284 287.695,67.284 " fill="none" id="old_node-to-None" style="stroke:#A80036;stroke-width:1.0;"/><polygon fill="#A80036" points="292.956,67.284,283.956,63.284,287.956,67.284,283.956,71.284,292.956,67.284" style="stroke:#A80036;stroke-width:1.0;"/><!--MD5=[14cf492ade181e6709364a0c5746b6a4]
reverse link old_node to self.tail--><path d="M205.823,92.2377 C195.867,109.0601 182.723,131.2694 173.435,146.9626 " fill="none" id="old_node-backto-self.tail" style="stroke:#FF0000;stroke-width:1.0;"/><polygon fill="#FF0000" points="208.541,87.6456,200.5147,93.3533,205.9943,91.9484,207.3992,97.428,208.541,87.6456" style="stroke:#FF0000;stroke-width:1.0;"/><!--MD5=[9c65905647854760ac432617c9beee11]
reverse link prev_node to self.tail--><path d="M118.177,92.2377 C128.133,109.0601 141.277,131.2694 150.565,146.9626 " fill="none" id="prev_node-backto-self.tail" style="stroke:#008000;stroke-width:1.0;"/><polygon fill="#008000" points="115.459,87.6456,116.6008,97.428,118.0057,91.9484,123.4853,93.3533,115.459,87.6456" style="stroke:#008000;stroke-width:1.0;"/><!--MD5=[d3b77b5c6f683f84890986ad1ce9c431]
@startuml
hide empty description

note "delete last" as N1

[*] -> prev_node

prev_node -r[#red]-> old_node
prev_node -r[#green]-> None

old_node -l-> prev_node
old_node -r-> None

self.tail -up[#red]-> old_node
self.tail -up[#green]-> prev_node
@enduml

PlantUML version 1.2021.2beta9(Unknown compile time)
(GPL source distribution)
Java Runtime: Java(TM) SE Runtime Environment
JVM: Java HotSpot(TM) 64-Bit Server VM
Default Encoding: UTF-8
Language: en
Country: US
--></g></svg>