<?xml version="1.0" encoding="UTF-8" standalone="no"?><svg xmlns="http://www.w3.org/2000/svg" xmlns:xlink="http://www.w3.org/1999/xlink" contentScriptType="application/ecmascript" contentStyleType="text/css" height="204px" preserveAspectRatio="none" style="width:542px;height:204px;" version="1.1" viewBox="0 0 542 204" width="542px" zoomAndPan="magnify"><defs><filter height="300%" id="f1ucm6l3c91htd" width="300%" x="-1" y="-1"><feGaussianBlur result="blurOut" stdDeviation="2.0"/><feColorMatrix in="blurOut" result="blurOut2" type="matrix" values="0 0 0 0 0 0 0 0 0 0 0 0 0 0 0 0 0 0 .4 0"/><feOffset dx="4.0" dy="4.0" in="blurOut2" result="blurOut3"/><feBlend in="SourceGraphic" in2="blurOut3" mode="normal"/></filter></defs><g><path d="M429,41.401 L429,66.5338 L533,66.5338 L533,51.401 L523,41.401 L429,41.401 " fill="#FBFB77" filter="url(#f1ucm6l3c91htd)" style="stroke:#A80036;stroke-width:1.0;"/><path d="M523,41.401 L523,51.401 L533,51.401 L523,41.401 " fill="#FBFB77" style="stroke:#A80036;stroke-width:1.0;"/><text fill="#000000" font-family="sans-serif" font-size="13" lengthAdjust="spacing" textLength="83" x="435" y="58.4679">insert middle</text><ellipse cx="16" cy="53.901" fill="#000000" filter="url(#f1ucm6l3c91htd)" rx="10" ry="10" style="stroke:none;stroke-width:1.0;"/><rect fill="#FEFECE" filter="url(#f1ucm6l3c91htd)" height="40" rx="12.5" ry="12.5" style="stroke:#A80036;stroke-width:1.5;" width="61" x="61.5" y="33.901"/><text fill="#000000" font-family="sans-serif" font-size="14" lengthAdjust="spacing" textLength="51" x="66.5" y="58.7477">a_node</text><rect fill="#FEFECE" filter="url(#f1ucm6l3c91htd)" height="40" rx="12.5" ry="12.5" style="stroke:#A80036;stroke-width:1.5;" width="63" x="275.5" y="33.901"/><text fill="#000000" font-family="sans-serif" font-size="14" lengthAdjust="spacing" textLength="53" x="280.5" y="58.7477">b_node</text><rect fill="#FEFECE" filter="url(#f1ucm6l3c91htd)" height="40" rx="12.5" ry="12.5" style="stroke:#A80036;stroke-width:1.5;" width="82" x="158" y="33.901"/><text fill="#000000" font-family="sans-serif" font-size="14" lengthAdjust="spacing" textLength="72" x="163" y="58.7477">new_node</text><ellipse cx="384" cy="53.901" filter="url(#f1ucm6l3c91htd)" rx="10" ry="10" style="stroke:#000000;stroke-width:1.0;fill:none;"/><ellipse cx="384.5" cy="54.401" fill="#000000" rx="6" ry="6" style="stroke:none;stroke-width:1.0;"/><rect fill="#FEFECE" filter="url(#f1ucm6l3c91htd)" height="40" rx="12.5" ry="12.5" style="stroke:#A80036;stroke-width:1.5;" width="50" x="174" y="150.901"/><text fill="#000000" font-family="sans-serif" font-size="14" lengthAdjust="spacing" textLength="26" x="186" y="175.7477">self</text><!--MD5=[d99001cb98e1d2cf21d03b8af3729ad0]
link *start to a_node--><path d="M26.0938,53.901 C36.1053,53.901 46.1169,53.901 56.1285,53.901 " fill="none" id="*start-to-a_node" style="stroke:#A80036;stroke-width:1.0;"/><polygon fill="#A80036" points="61.3639,53.901,52.3639,49.901,56.3639,53.901,52.3639,57.901,61.3639,53.901" style="stroke:#A80036;stroke-width:1.0;"/><!--MD5=[eb43bf1d177083cb4bd1411a950ac23c]
link a_node to b_node--><path d="M122.536,35.142 C131.586,30.537 141.739,26.256 151.667,23.901 C192.172,14.291 204.766,14.557 245.333,23.901 C253.788,25.848 262.427,29.118 270.459,32.8 " fill="none" id="a_node-to-b_node" style="stroke:#FF0000;stroke-width:1.0;"/><polygon fill="#FF0000" points="275.375,35.137,268.9656,27.6591,270.8597,32.9894,265.5294,34.8835,275.375,35.137" style="stroke:#FF0000;stroke-width:1.0;"/><!--MD5=[036ef768561867ff275d6421528e4f12]
reverse link a_node to b_node--><path d="M124.594,31.016 C136.264,24.103 149.872,17.418 163.333,13.901 C193.578,6 203.377,6.177 233.667,13.901 C249.265,17.878 265.124,25.927 278.084,33.768 " fill="none" id="a_node-backto-b_node" style="stroke:#FF0000;stroke-width:1.0;"/><polygon fill="#FF0000" points="120.054,33.774,129.8227,32.5199,124.3273,31.178,125.6691,25.6826,120.054,33.774" style="stroke:#FF0000;stroke-width:1.0;"/><!--MD5=[f2c9c9a11c67552b2ee750eb66a51bd6]
link a_node to new_node--><path d="M122.512,66.132 C132.519,68.543 142.527,69.38 152.535,68.642 " fill="none" id="a_node-to-new_node" style="stroke:#008000;stroke-width:1.0;"/><polygon fill="#008000" points="157.768,68.112,148.4105,65.0399,152.7935,68.6162,149.2172,72.9991,157.768,68.112" style="stroke:#008000;stroke-width:1.0;"/><!--MD5=[dc9a1cf324f0db19b2cc896268f6b9c3]
reverse link a_node to new_node--><path d="M127.47,40.605 C137.569,38.696 147.669,38.391 157.768,39.69 " fill="none" id="a_node-backto-new_node" style="stroke:#008000;stroke-width:1.0;"/><polygon fill="#008000" points="122.512,41.67,132.152,43.6876,127.4002,40.6184,130.4694,35.8665,122.512,41.67" style="stroke:#008000;stroke-width:1.0;"/><!--MD5=[a6317c729cca9147b0ce01c51fec7a0e]
link new_node to b_node--><path d="M240.344,68.077 C250.413,69.388 260.482,69.135 270.551,67.316 " fill="none" id="new_node-to-b_node" style="stroke:#008000;stroke-width:1.0;"/><polygon fill="#008000" points="275.495,66.298,265.8731,64.1957,270.5978,67.3066,267.4869,72.0312,275.495,66.298" style="stroke:#008000;stroke-width:1.0;"/><!--MD5=[96d808540e305ff58c1604a8575a8aef]
reverse link new_node to b_node--><path d="M245.561,39.186 C255.539,38.422 265.517,39.195 275.495,41.504 " fill="none" id="new_node-backto-b_node" style="stroke:#008000;stroke-width:1.0;"/><polygon fill="#008000" points="240.344,39.725,249.7076,42.7782,245.3175,39.2108,248.8849,34.8206,240.344,39.725" style="stroke:#008000;stroke-width:1.0;"/><!--MD5=[de2e8a43982bc3e55820e4a4bf16f0ac]
link b_node to *end--><path d="M338.582,53.901 C348.553,53.901 358.524,53.901 368.496,53.901 " fill="none" id="b_node-to-*end" style="stroke:#A80036;stroke-width:1.0;"/><polygon fill="#A80036" points="373.71,53.901,364.71,49.901,368.71,53.901,364.71,57.901,373.71,53.901" style="stroke:#A80036;stroke-width:1.0;"/><!--MD5=[8a5482429cc46b3ccf293ed1e889dd94]
reverse link b_node to self--><path d="M291.206,78.295 C281.903,91.389 269.53,107.6867 257,120.901 C246.932,131.5186 234.691,142.1409 224.054,150.7677 " fill="none" id="b_node-backto-self" style="stroke:#A80036;stroke-width:1.0;"/><polygon fill="#A80036" points="294.239,73.987,285.7872,79.0433,291.3606,78.0754,292.3285,83.6488,294.239,73.987" style="stroke:#A80036;stroke-width:1.0;"/><text fill="#000000" font-family="sans-serif" font-size="13" lengthAdjust="spacing" textLength="119" x="272" y="116.9679">_get_node_(index)</text><!--MD5=[0eab5c81c587fea10a0522813bc26c23]
reverse link a_node to self--><path d="M97.7757,78.769 C101.9573,92.2654 108.714,108.8063 119,120.901 C133.773,138.2705 156.313,151.2966 173.708,159.5353 " fill="none" id="a_node-backto-self" style="stroke:#A80036;stroke-width:1.0;"/><polygon fill="#A80036" points="96.3499,73.948,95.0676,83.713,97.7684,78.7426,102.7389,81.4434,96.3499,73.948" style="stroke:#A80036;stroke-width:1.0;"/><text fill="#000000" font-family="sans-serif" font-size="13" lengthAdjust="spacing" textLength="132" x="120" y="116.9679">_get_node_(index-1)</text><!--MD5=[286cf3925f39cb8eeaab5f90036354d3]
@startuml
hide empty description

note "insert middle" as N1

[*] -> a_node
a_node -r[#red]-> b_node
a_node -r[#green]-> new_node

new_node -l[#green]-> a_node
new_node -r[#green]-> b_node

b_node -l[#red]> a_node
b_node -l[#green]> new_node
b_node -> [*]

self -u->b_node: _get_node_(index)
self -u->a_node: _get_node_(index-1)
@enduml

PlantUML version 1.2021.2beta14(Unknown compile time)
(GPL source distribution)
Java Runtime: Java(TM) SE Runtime Environment
JVM: Java HotSpot(TM) 64-Bit Server VM
Default Encoding: UTF-8
Language: en
Country: US
--></g></svg>