<?xml version="1.0" encoding="UTF-8" standalone="no"?><svg xmlns="http://www.w3.org/2000/svg" xmlns:xlink="http://www.w3.org/1999/xlink" contentScriptType="application/ecmascript" contentStyleType="text/css" height="178px" preserveAspectRatio="none" style="width:454px;height:178px;" version="1.1" viewBox="0 0 454 178" width="454px" zoomAndPan="magnify"><defs><filter height="300%" id="f31vir7i73o4f" width="300%" x="-1" y="-1"><feGaussianBlur result="blurOut" stdDeviation="2.0"/><feColorMatrix in="blurOut" result="blurOut2" type="matrix" values="0 0 0 0 0 0 0 0 0 0 0 0 0 0 0 0 0 0 .4 0"/><feOffset dx="4.0" dy="4.0" in="blurOut2" result="blurOut3"/><feBlend in="SourceGraphic" in2="blurOut3" mode="normal"/></filter></defs><g><path d="M359,14.5 L359,39.6328 L445,39.6328 L445,24.5 L435,14.5 L359,14.5 " fill="#FBFB77" filter="url(#f31vir7i73o4f)" style="stroke:#A80036;stroke-width:1.0;"/><path d="M435,14.5 L435,24.5 L445,24.5 L435,14.5 " fill="#FBFB77" style="stroke:#A80036;stroke-width:1.0;"/><text fill="#000000" font-family="sans-serif" font-size="13" lengthAdjust="spacing" textLength="65" x="365" y="31.5669">insert at 0</text><rect fill="#FEFECE" filter="url(#f31vir7i73o4f)" height="40" rx="12.5" ry="12.5" style="stroke:#A80036;stroke-width:1.5;" width="75" x="193.5" y="7"/><text fill="#000000" font-family="sans-serif" font-size="14" lengthAdjust="spacing" textLength="65" x="198.5" y="31.8467">old_node</text><ellipse cx="314" cy="27" filter="url(#f31vir7i73o4f)" rx="10" ry="10" style="stroke:#000000;stroke-width:1.0;fill:none;"/><ellipse cx="314.5" cy="27.5" fill="#000000" rx="6" ry="6" style="stroke:none;stroke-width:1.0;"/><rect fill="#FEFECE" filter="url(#f31vir7i73o4f)" height="40" rx="12.5" ry="12.5" style="stroke:#A80036;stroke-width:1.5;" width="82" x="7" y="7"/><text fill="#000000" font-family="sans-serif" font-size="14" lengthAdjust="spacing" textLength="72" x="12" y="31.8467">new_node</text><rect fill="#FEFECE" filter="url(#f31vir7i73o4f)" height="40" rx="12.5" ry="12.5" style="stroke:#A80036;stroke-width:1.5;" width="50" x="127" y="124"/><text fill="#000000" font-family="sans-serif" font-size="14" lengthAdjust="spacing" textLength="26" x="139" y="148.8467">self</text><!--MD5=[0c6e2c3bbe2e2d44522ef5ca1ad83df1]
link old_node to *end--><path d="M268.609,27 C278.575,27 288.54,27 298.505,27 " fill="none" id="old_node-to-*end" style="stroke:#A80036;stroke-width:1.0;"/><polygon fill="#A80036" points="303.716,27,294.716,23,298.716,27,294.716,31,303.716,27" style="stroke:#A80036;stroke-width:1.0;"/><!--MD5=[60f90985473a2e1390404b89f4b51d83]
link new_node to old_node--><path d="M89.0688,27 C118.655,27 158.471,27 188.402,27 " fill="none" id="new_node-to-old_node" style="stroke:#008000;stroke-width:1.0;"/><polygon fill="#008000" points="193.494,27,184.494,23,188.494,27,184.494,31,193.494,27" style="stroke:#008000;stroke-width:1.0;"/><text fill="#000000" font-family="sans-serif" font-size="13" lengthAdjust="spacing" textLength="68" x="107.25" y="20.0669">next_node</text><!--MD5=[97e6e8db693b2d06e78e74f99d4e6d6f]
reverse link new_node to old_node--><path d="M94.2986,44.415 C98.2995,45.455 102.3198,46.344 106.25,47 C136.937,52.121 145.615,52.42 176.25,47 C181.93,45.995 187.795,44.446 193.481,42.645 " fill="none" id="new_node-backto-old_node" style="stroke:#008000;stroke-width:1.0;"/><polygon fill="#008000" points="89.2494,43.023,96.8626,49.2712,94.0696,44.3519,98.9888,41.5589,89.2494,43.023" style="stroke:#008000;stroke-width:1.0;"/><text fill="#000000" font-family="sans-serif" font-size="13" lengthAdjust="spacing" textLength="68" x="107.25" y="43.0669">prev_node</text><!--MD5=[fe8306942789f23139d8e1dde2212273]
reverse link new_node to self--><path d="M68.8958,51.106 C88.1645,72.4127 116.442,103.6807 134.536,123.6888 " fill="none" id="new_node-backto-self" style="stroke:#008000;stroke-width:1.0;"/><polygon fill="#008000" points="65.4073,47.248,68.478,56.6059,68.7613,50.9562,74.4111,51.2394,65.4073,47.248" style="stroke:#008000;stroke-width:1.0;"/><text fill="#000000" font-family="sans-serif" font-size="13" lengthAdjust="spacing" textLength="32" x="108" y="90.0669">head</text><!--MD5=[b6da297a964c7e08edbde0a2734718d8]
reverse link old_node to self--><path d="M214.945,51.372 C200.312,72.672 178.954,103.7637 165.266,123.6888 " fill="none" id="old_node-backto-self" style="stroke:#FF0000;stroke-width:1.0;"/><polygon fill="#FF0000" points="217.777,47.248,209.383,52.3997,214.9451,51.3687,215.9761,56.9308,217.777,47.248" style="stroke:#FF0000;stroke-width:1.0;"/><text fill="#000000" font-family="sans-serif" font-size="13" lengthAdjust="spacing" textLength="32" x="197" y="90.0669">head</text><!--MD5=[33367a37f9d4ccf139fb4107bcd4dc81]
@startuml
hide empty description

note "insert at 0" as N1

old_node -> [*]

new_node -r[#green]-> old_node: next_node
old_node -l[#green]-> new_node: prev_node

self -up[#green]-> new_node: head
self -up[#red]-> old_node: head
@enduml

PlantUML version 1.2021.2beta13(Unknown compile time)
(GPL source distribution)
Java Runtime: Java(TM) SE Runtime Environment
JVM: Java HotSpot(TM) 64-Bit Server VM
Default Encoding: UTF-8
Language: en
Country: US
--></g></svg>